<svg width="1182" height="426" xmlns="http://www.w3.org/2000/svg" xmlns:xlink="http://www.w3.org/1999/xlink" overflow="hidden"><g transform="translate(-72 -140)"><path d="M78 217.333C78 212.731 81.731 209 86.3334 209L187.667 209C192.269 209 196 212.731 196 217.333L196 250.667C196 255.269 192.269 259 187.667 259L86.3334 259C81.731 259 78 255.269 78 250.667Z" stroke="#285FF5" stroke-width="4" stroke-miterlimit="8" fill="none" fill-rule="evenodd"/><text font-family="Georgia,Georgia_MSFontService,sans-serif" font-weight="700" font-size="24" transform="translate(98.9574 242)">attack</text><path d="M77 520.167C77 515.656 80.6564 512 85.1668 512L186.833 512C191.344 512 195 515.656 195 520.167L195 552.833C195 557.344 191.344 561 186.833 561L85.1668 561C80.6564 561 77 557.344 77 552.833Z" stroke="#285FF5" stroke-width="4" stroke-miterlimit="8" fill="none" fill-rule="evenodd"/><text font-family="Georgia,Georgia_MSFontService,sans-serif" font-weight="700" font-size="24" transform="translate(104.757 545)">mine</text><path d="M77 317.333C77 312.731 80.731 309 85.3334 309L186.667 309C191.269 309 195 312.731 195 317.333L195 350.667C195 355.269 191.269 359 186.667 359L85.3334 359C80.731 359 77 355.269 77 350.667Z" stroke="#285FF5" stroke-width="4" stroke-miterlimit="8" fill="none" fill-rule="evenodd"/><text font-family="Georgia,Georgia_MSFontService,sans-serif" font-weight="700" font-size="24" transform="translate(93.7569 342)">defend</text><path d="M77 418.333C77 413.731 80.731 410 85.3334 410L186.667 410C191.269 410 195 413.731 195 418.333L195 451.667C195 456.269 191.269 460 186.667 460L85.3334 460C80.731 460 77 456.269 77 451.667Z" stroke="#285FF5" stroke-width="4" stroke-miterlimit="8" fill="none" fill-rule="evenodd"/><text font-family="Georgia,Georgia_MSFontService,sans-serif" font-weight="700" font-size="24" transform="translate(91.0902 444)">expand</text><path d="M1.99989-0.0211169 2.42816 40.5388-1.57161 40.581-1.99989 0.0211169ZM6.40682 38.4967 0.533858 50.5594-5.59251 38.6234Z" fill="#285FF5" transform="matrix(-1 0 0 1 136.534 259)"/><path d="M138 359 138 400.874 134 400.874 134 359ZM142 398.874 136 410.874 130 398.874Z" fill="#285FF5"/><path d="M2-4.04778e-06 2.00008 41.8738-1.99992 41.8738-2 4.04778e-06ZM6.00008 39.8738 0.000104987 51.8738-5.99992 39.8738Z" fill="#285FF5" transform="matrix(-1 0 0 1 136 460)"/><path d="M305 217.333C305 212.731 308.731 209 313.333 209L414.667 209C419.269 209 423 212.731 423 217.333L423 250.667C423 255.269 419.269 259 414.667 259L313.333 259C308.731 259 305 255.269 305 250.667Z" stroke="#285FF5" stroke-width="4" stroke-miterlimit="8" fill="none" fill-rule="evenodd"/><text font-family="Georgia,Georgia_MSFontService,sans-serif" font-weight="700" font-size="24" transform="translate(321.253 242)">defend</text><path d="M304 520.167C304 515.656 307.656 512 312.167 512L413.833 512C418.344 512 422 515.656 422 520.167L422 552.833C422 557.344 418.344 561 413.833 561L312.167 561C307.656 561 304 557.344 304 552.833Z" stroke="#285FF5" stroke-width="4" stroke-miterlimit="8" fill="none" fill-rule="evenodd"/><text font-family="Georgia,Georgia_MSFontService,sans-serif" font-weight="700" font-size="24" transform="translate(331.719 545)">mine</text><path d="M304 317.333C304 312.731 307.731 309 312.333 309L413.667 309C418.269 309 422 312.731 422 317.333L422 350.667C422 355.269 418.269 359 413.667 359L312.333 359C307.731 359 304 355.269 304 350.667Z" stroke="#285FF5" stroke-width="4" stroke-miterlimit="8" fill="none" fill-rule="evenodd"/><text font-family="Georgia,Georgia_MSFontService,sans-serif" font-weight="700" font-size="24" transform="translate(325.385 342)">attack</text><path d="M304 418.333C304 413.731 307.731 410 312.333 410L413.667 410C418.269 410 422 413.731 422 418.333L422 451.667C422 456.269 418.269 460 413.667 460L312.333 460C307.731 460 304 456.269 304 451.667Z" stroke="#285FF5" stroke-width="4" stroke-miterlimit="8" fill="none" fill-rule="evenodd"/><text font-family="Georgia,Georgia_MSFontService,sans-serif" font-weight="700" font-size="24" transform="translate(318.052 444)">expand</text><path d="M1.99989-0.0211169 2.42816 40.5388-1.57161 40.581-1.99989 0.0211169ZM6.40682 38.4967 0.533858 50.5594-5.59251 38.6234Z" fill="#285FF5" transform="matrix(-1 0 0 1 363.534 259)"/><path d="M365 359 365 400.874 361 400.874 361 359ZM369 398.874 363 410.874 357 398.874Z" fill="#285FF5"/><path d="M2-4.04778e-06 2.00008 41.8738-1.99992 41.8738-2 4.04778e-06ZM6.00008 39.8738 0.000104987 51.8738-5.99992 39.8738Z" fill="#285FF5" transform="matrix(-1 0 0 1 363 460)"/><path d="M532 217.333C532 212.731 535.731 209 540.333 209L640.667 209C645.269 209 649 212.731 649 217.333L649 250.667C649 255.269 645.269 259 640.667 259L540.333 259C535.731 259 532 255.269 532 250.667Z" stroke="#285FF5" stroke-width="4" stroke-miterlimit="8" fill="none" fill-rule="evenodd"/><text font-family="Georgia,Georgia_MSFontService,sans-serif" font-weight="700" font-size="24" transform="translate(559.215 242)">mine</text><path d="M531 520.167C531 515.656 534.656 512 539.167 512L640.833 512C645.344 512 649 515.656 649 520.167L649 552.833C649 557.344 645.344 561 640.833 561L539.167 561C534.656 561 531 557.344 531 552.833Z" stroke="#285FF5" stroke-width="4" stroke-miterlimit="8" fill="none" fill-rule="evenodd"/><text font-family="Georgia,Georgia_MSFontService,sans-serif" font-weight="700" font-size="24" transform="translate(545.014 545)">expand</text><path d="M531 317.333C531 312.731 534.731 309 539.333 309L640.667 309C645.269 309 649 312.731 649 317.333L649 350.667C649 355.269 645.269 359 640.667 359L539.333 359C534.731 359 531 355.269 531 350.667Z" stroke="#285FF5" stroke-width="4" stroke-miterlimit="8" fill="none" fill-rule="evenodd"/><text font-family="Georgia,Georgia_MSFontService,sans-serif" font-weight="700" font-size="24" transform="translate(547.681 342)">defend</text><path d="M531 418.333C531 413.731 534.731 410 539.333 410L640.667 410C645.269 410 649 413.731 649 418.333L649 451.667C649 456.269 645.269 460 640.667 460L539.333 460C534.731 460 531 456.269 531 451.667Z" stroke="#285FF5" stroke-width="4" stroke-miterlimit="8" fill="none" fill-rule="evenodd"/><text font-family="Georgia,Georgia_MSFontService,sans-serif" font-weight="700" font-size="24" transform="translate(552.347 444)">attack</text><path d="M1.99989-0.0211169 2.42816 40.5388-1.57161 40.581-1.99989 0.0211169ZM6.40682 38.4967 0.533858 50.5594-5.59251 38.6234Z" fill="#285FF5" transform="matrix(-1 0 0 1 590.534 259)"/><path d="M592 359 592 400.874 588 400.874 588 359ZM596 398.874 590 410.874 584 398.874Z" fill="#285FF5"/><path d="M2-4.04778e-06 2.00008 41.8738-1.99992 41.8738-2 4.04778e-06ZM6.00008 39.8738 0.000104987 51.8738-5.99992 39.8738Z" fill="#285FF5" transform="matrix(-1 0 0 1 590 460)"/><path d="M759 217.333C759 212.731 762.731 209 767.333 209L867.667 209C872.269 209 876 212.731 876 217.333L876 250.667C876 255.269 872.269 259 867.667 259L767.333 259C762.731 259 759 255.269 759 250.667Z" stroke="#285FF5" stroke-width="4" stroke-miterlimit="8" fill="none" fill-rule="evenodd"/><text font-family="Georgia,Georgia_MSFontService,sans-serif" font-weight="700" font-size="24" transform="translate(772.51 242)">expand</text><path d="M758 520.167C758 515.656 761.656 512 766.167 512L867.833 512C872.344 512 876 515.656 876 520.167L876 552.833C876 557.344 872.344 561 867.833 561L766.167 561C761.656 561 758 557.344 758 552.833Z" stroke="#285FF5" stroke-width="4" stroke-miterlimit="8" fill="none" fill-rule="evenodd"/><text font-family="Georgia,Georgia_MSFontService,sans-serif" font-weight="700" font-size="24" transform="translate(785.642 545)">mine</text><path d="M758 317.333C758 312.731 761.731 309 766.333 309L867.667 309C872.269 309 876 312.731 876 317.333L876 350.667C876 355.269 872.269 359 867.667 359L766.333 359C761.731 359 758 355.269 758 350.667Z" stroke="#285FF5" stroke-width="4" stroke-miterlimit="8" fill="none" fill-rule="evenodd"/><text font-family="Georgia,Georgia_MSFontService,sans-serif" font-weight="700" font-size="24" transform="translate(774.643 342)">defend</text><path d="M758 418.333C758 413.731 761.731 410 766.333 410L867.667 410C872.269 410 876 413.731 876 418.333L876 451.667C876 456.269 872.269 460 867.667 460L766.333 460C761.731 460 758 456.269 758 451.667Z" stroke="#285FF5" stroke-width="4" stroke-miterlimit="8" fill="none" fill-rule="evenodd"/><text font-family="Georgia,Georgia_MSFontService,sans-serif" font-weight="700" font-size="24" transform="translate(779.309 444)">attack</text><path d="M1.99989-0.0211169 2.42816 40.5388-1.57161 40.581-1.99989 0.0211169ZM6.40682 38.4967 0.533858 50.5594-5.59251 38.6234Z" fill="#285FF5" transform="matrix(-1 0 0 1 817.534 259)"/><path d="M819 359 819 400.874 815 400.874 815 359ZM823 398.874 817 410.874 811 398.874Z" fill="#285FF5"/><path d="M2-4.04778e-06 2.00008 41.8738-1.99992 41.8738-2 4.04778e-06ZM6.00008 39.8738 0.000104987 51.8738-5.99992 39.8738Z" fill="#285FF5" transform="matrix(-1 0 0 1 817 460)"/><path d="M1026 217.333C1026 212.731 1029.73 209 1034.33 209L1135.67 209C1140.27 209 1144 212.731 1144 217.333L1144 250.667C1144 255.269 1140.27 259 1135.67 259L1034.33 259C1029.73 259 1026 255.269 1026 250.667Z" stroke="#285FF5" stroke-width="4" stroke-miterlimit="8" fill="none" fill-rule="evenodd"/><text font-family="Georgia,Georgia_MSFontService,sans-serif" font-weight="700" font-size="24" transform="translate(1039.81 242)">expand</text><path d="M1025 520.333C1025 515.731 1028.73 512 1033.33 512L1134.67 512C1139.27 512 1143 515.731 1143 520.333L1143 553.667C1143 558.269 1139.27 562 1134.67 562L1033.33 562C1028.73 562 1025 558.269 1025 553.667Z" stroke="#285FF5" stroke-width="4" stroke-miterlimit="8" fill="none" fill-rule="evenodd"/><text font-family="Georgia,Georgia_MSFontService,sans-serif" font-weight="700" font-size="24" transform="translate(1052.62 545)">mine</text><path d="M1134 368.167C1134 363.656 1137.66 360 1142.17 360L1242.83 360C1247.34 360 1251 363.656 1251 368.167L1251 400.833C1251 405.344 1247.34 409 1242.83 409L1142.17 409C1137.66 409 1134 405.344 1134 400.833Z" stroke="#285FF5" stroke-width="4" stroke-miterlimit="8" fill="none" fill-rule="evenodd"/><text font-family="Georgia,Georgia_MSFontService,sans-serif" font-weight="700" font-size="24" transform="translate(1150.2 393)">defend</text><path d="M917 368.167C917 363.656 920.656 360 925.167 360L1025.83 360C1030.34 360 1034 363.656 1034 368.167L1034 400.833C1034 405.344 1030.34 409 1025.83 409L925.167 409C920.656 409 917 405.344 917 400.833Z" stroke="#285FF5" stroke-width="4" stroke-miterlimit="8" fill="none" fill-rule="evenodd"/><text font-family="Georgia,Georgia_MSFontService,sans-serif" font-weight="700" font-size="24" transform="translate(937.709 393)">attack</text><path d="M2.03381 9.99365 2.82412 243.648-1.17586 243.661-1.96616 10.0072ZM-5.95938 12.0202 0 0 6.04055 11.9796ZM6.81733 241.634 0.857953 253.654-5.1826 241.674Z" fill="#285FF5" transform="matrix(-1 0 0 1 1084.86 259)"/><path d="M1044 383 1123.64 383 1123.64 387 1044 387ZM1046 391 1034 385 1046 379ZM1121.64 379 1133.64 385 1121.64 391Z" fill="#285FF5"/><text font-family="STZhongsong,STZhongsong_MSFontService,sans-serif" font-weight="700" font-size="24" transform="translate(87.0952 171)">优先进攻</text><text font-family="STZhongsong,STZhongsong_MSFontService,sans-serif" font-weight="700" font-size="24" transform="translate(314.057 171)">优先防御</text><text font-family="STZhongsong,STZhongsong_MSFontService,sans-serif" font-weight="700" font-size="24" transform="translate(541.019 171)">优先采矿</text><text font-family="STZhongsong,STZhongsong_MSFontService,sans-serif" font-weight="700" font-size="24" transform="translate(767.981 171)">优先扩张</text><text font-family="STZhongsong,STZhongsong_MSFontService,sans-serif" font-weight="700" font-size="24" transform="translate(1034.96 171)">中庸之道</text></g></svg>