<svg width="954" height="534" xmlns="http://www.w3.org/2000/svg" xmlns:xlink="http://www.w3.org/1999/xlink" overflow="hidden"><g transform="translate(-241 -93)"><path d="M1.33333-1.00019e-06 1.33343 133.29-1.33323 133.29-1.33333 1.00019e-06ZM4.0001 131.956 0.000104987 139.956-3.9999 131.956Z" fill="#4169E1" transform="matrix(1 0 0 -1 1023.5 323.456)"/><path d="M1.33333-1.00019e-06 1.33343 133.29-1.33323 133.29-1.33333 1.00019e-06ZM4.0001 131.956 0.000104987 139.956-3.9999 131.956Z" fill="#4169E1" transform="matrix(1 0 0 -1 715.5 323.456)"/><path d="M577.833 183.5 577.833 316.416 575.167 316.416 575.167 183.5ZM580.5 315.082 576.5 323.082 572.5 315.082Z" fill="#4169E1"/><rect x="523" y="96" width="669" height="87" stroke="#4169E1" stroke-width="4" stroke-miterlimit="8" fill="#FFFFFF"/><text font-family="Georgia,Georgia_MSFontService,sans-serif" font-weight="700" font-size="21" transform="translate(737.815 147)">DQN Loss Calculation</text><rect x="922" y="323" width="202" height="35" stroke="#4169E1" stroke-width="4" stroke-miterlimit="8" fill="#FFFFFF"/><text font-family="Georgia,Georgia_MSFontService,sans-serif" font-weight="700" font-size="21" transform="translate(936.431 348)">Target Network</text><rect x="523" y="323" width="249" height="36" stroke="#4169E1" stroke-width="4" stroke-miterlimit="8" fill="#FFFFFF"/><text font-family="Georgia,Georgia_MSFontService,sans-serif" font-weight="700" font-size="21" transform="translate(568.969 349)">Main Network</text><rect x="245" y="323" width="167" height="36" stroke="#4169E1" stroke-width="4" stroke-miterlimit="8" fill="#FFFFFF"/><text font-family="Georgia,Georgia_MSFontService,sans-serif" font-weight="700" font-size="21" transform="translate(254.856 349)">Environment</text><path d="M517 521.625C517 529.702 575.875 536.25 648.5 536.25 721.125 536.25 780 529.702 780 521.625L780 609.375C780 617.452 721.125 624 648.5 624 575.875 624 517 617.452 517 609.375Z" fill="#FFFFFF" fill-rule="evenodd"/><path d="M517 521.625C517 513.548 575.875 507 648.5 507 721.125 507 780 513.548 780 521.625 780 529.702 721.125 536.25 648.5 536.25 575.875 536.25 517 529.702 517 521.625Z" fill="#FFFFFF" fill-rule="evenodd"/><path d="M780 521.625C780 529.702 721.125 536.25 648.5 536.25 575.875 536.25 517 529.702 517 521.625 517 513.548 575.875 507 648.5 507 721.125 507 780 513.548 780 521.625L780 609.375C780 617.452 721.125 624 648.5 624 575.875 624 517 617.452 517 609.375L517 521.625" stroke="#4169E1" stroke-width="4" stroke-miterlimit="8" fill="none" fill-rule="evenodd"/><text font-family="Georgia,Georgia_MSFontService,sans-serif" font-weight="700" font-size="21" transform="translate(561.686 581)">Replay Memory</text><path d="M647.716 507.849 647.191 366.172 649.858 366.162 650.383 507.839ZM644.53 367.515 648.5 359.5 652.53 367.485Z" fill="#4169E1"/><path d="M1.23541e-06-1.33333 106.642-1.33323 106.642 1.33343-1.23541e-06 1.33333ZM105.309-3.9999 113.309 0.000104987 105.309 4.0001Z" fill="#4169E1" transform="matrix(-1 0 0 1 523.809 334.5)"/><path d="M412.5 350.167 517.02 350.167 517.02 352.833 412.5 352.833ZM515.687 347.5 523.687 351.5 515.687 355.5Z" fill="#4169E1"/><path d="M0.00537461-1.33332 142.837-0.757571 142.826 1.90907-0.00537461 1.33332ZM141.514-3.42959 149.498 0.602625 141.482 4.57034Z" fill="#4169E1" transform="matrix(1 0 0 -1 772.5 341.103)"/><path d="M781.5 600.5 1153.57 600.5" stroke="#4169E1" stroke-width="2.66667" stroke-miterlimit="8" fill="none" fill-rule="evenodd"/><path d="M1.33333-3.35543e-07 1.33344 410.516-1.33323 410.516-1.33333 3.35543e-07ZM4.0001 409.182 0.000104987 417.182-3.9999 409.182Z" fill="#4169E1" transform="matrix(1 0 0 -1 1153.5 600.682)"/><text font-family="Georgia,Georgia_MSFontService,sans-serif" font-weight="700" font-size="21" transform="translate(460.564 377)">s</text><text font-family="Georgia,Georgia_MSFontService,sans-serif" font-weight="700" font-size="21" transform="translate(424.922 321)">ε</text><text font-family="Georgia,Georgia_MSFontService,sans-serif" font-weight="700" font-size="21" transform="translate(436.422 321)">-</text><text font-family="Georgia,Georgia_MSFontService,sans-serif" font-weight="700" font-size="21" transform="translate(444.589 321)">greedy</text><text font-family="Georgia,Georgia_MSFontService,sans-serif" font-weight="700" font-size="21" transform="translate(504.285 263)">Gradient loss</text><text font-family="Georgia,Georgia_MSFontService,sans-serif" font-weight="700" font-size="21" transform="translate(676.404 263)">Predicted Q</text><text font-family="Georgia,Georgia_MSFontService,sans-serif" font-weight="700" font-size="21" transform="translate(962.887 259)">Target Q</text><text font-family="Georgia,Georgia_MSFontService,sans-serif" font-weight="700" font-size="21" transform="translate(588.315 444)">(s,</text><text font-family="Georgia,Georgia_MSFontService,sans-serif" font-weight="700" font-size="21" transform="translate(621.315 444)">a)</text><text font-family="Georgia,Georgia_MSFontService,sans-serif" font-weight="700" font-size="21" transform="translate(356.969 556)">(s, a, r, s’)</text><text font-family="Georgia,Georgia_MSFontService,sans-serif" font-weight="700" font-size="21" transform="translate(1164.24 413)">r</text><text font-family="Georgia,Georgia_MSFontService,sans-serif" font-weight="700" font-size="21" transform="translate(810.927 556)">(s’ = next state)</text><path d="M0-1.33333 244.162-1.33333 244.162 200.78 241.495 200.78 241.495 0 242.828 1.33333 0 1.33333ZM246.828 199.447 242.828 207.447 238.828 199.447Z" fill="#4169E1" transform="matrix(1 0 0 -1 780.5 565.947)"/><path d="M0-1.33333 208.177-1.33333 208.177 181.356 205.511 181.356 205.511 0 206.844 1.33333 0 1.33333ZM210.844 180.022 206.844 188.022 202.844 180.022Z" fill="#4169E1" transform="matrix(1.83697e-16 1 1 -1.83697e-16 329.5 359.5)"/></g></svg>