<svg width="926" height="459" xmlns="http://www.w3.org/2000/svg" xmlns:xlink="http://www.w3.org/1999/xlink" overflow="hidden"><g transform="translate(-207 -195)"><path d="M426.776 393.06 537.026 393.06 500.276 448.06 390.026 448.06 426.776 393.06Z" fill="#102E76" fill-rule="evenodd"/><path d="M427.276 393.56 537.526 393.56 500.776 448.56 390.526 448.56 427.276 393.56Z" stroke="#000000" stroke-width="0.704042" stroke-miterlimit="8" stroke-dasharray="0 0" fill="none" fill-rule="evenodd"/><path d="M426.776 376.056 537.026 376.056 500.276 432.056 390.026 432.056 426.776 376.056Z" fill="#1841A3" fill-rule="evenodd"/><path d="M427.276 376.556 537.526 376.556 500.776 432.556 390.526 432.556 427.276 376.556Z" stroke="#000000" stroke-width="0.704042" stroke-miterlimit="8" stroke-dasharray="0 0" fill="none" fill-rule="evenodd"/><path d="M426.776 361.05 537.026 361.05 500.276 416.05 390.026 416.05 426.776 361.05Z" fill="#285FF5" fill-rule="evenodd"/><path d="M427.276 361.55 537.526 361.55 500.776 416.55 390.526 416.55 427.276 361.55Z" stroke="#000000" stroke-width="0.704042" stroke-miterlimit="8" stroke-dasharray="0 0" fill="none" fill-rule="evenodd"/><path d="M426.776 343.045 537.026 343.045 500.276 398.045 390.026 398.045 426.776 343.045Z" fill="#4F85F6" fill-rule="evenodd"/><path d="M427.276 343.545 537.526 343.545 500.776 398.545 390.526 398.545 427.276 343.545Z" stroke="#000000" stroke-width="0.704042" stroke-miterlimit="8" stroke-dasharray="0 0" fill="none" fill-rule="evenodd"/><path d="M426.776 328.04 537.026 328.04 500.276 383.04 390.026 383.04 426.776 328.04Z" fill="#7FA5F8" fill-rule="evenodd"/><path d="M427.276 328.54 537.526 328.54 500.776 383.54 390.526 383.54 427.276 328.54Z" stroke="#000000" stroke-width="0.704042" stroke-miterlimit="8" stroke-dasharray="0 0" fill="none" fill-rule="evenodd"/><path d="M426.776 311.035 537.026 311.035 500.276 366.035 390.026 366.035 426.776 311.035Z" fill="#ADC5FA" fill-rule="evenodd"/><path d="M427.276 311.535 537.526 311.535 500.776 366.535 390.526 366.535 427.276 311.535Z" stroke="#000000" stroke-width="0.704042" stroke-miterlimit="8" stroke-dasharray="0 0" fill="none" fill-rule="evenodd"/><path d="M426.776 294.031 537.026 294.031 500.276 350.031 390.026 350.031 426.776 294.031Z" fill="#D6E1FC" fill-rule="evenodd"/><path d="M427.276 294.531 537.526 294.531 500.776 350.531 390.526 350.531 427.276 294.531Z" stroke="#000000" stroke-width="0.704042" stroke-miterlimit="8" stroke-dasharray="0 0" fill="none" fill-rule="evenodd"/><path d="M656.102 250.511C656.102 263.489 645.581 274.011 632.602 274.011 619.624 274.011 609.102 263.489 609.102 250.511 609.102 237.532 619.624 227.011 632.602 227.011 645.581 227.011 656.102 237.532 656.102 250.511" fill="#F2F2F2" fill-rule="evenodd"/><path d="M656.603 251.011C656.603 263.989 646.081 274.511 633.102 274.511 620.124 274.511 609.602 263.989 609.602 251.011 609.602 238.032 620.124 227.511 633.102 227.511 646.081 227.511 656.603 238.032 656.603 251.011" stroke="#000000" stroke-width="0.704042" stroke-miterlimit="8" stroke-dasharray="0 0" fill="none" fill-rule="evenodd"/><path d="M656.102 319.531C656.102 332.51 645.581 343.031 632.602 343.031 619.624 343.031 609.102 332.51 609.102 319.531 609.102 306.552 619.624 296.031 632.602 296.031 645.581 296.031 656.102 306.552 656.102 319.531" fill="#FFFFFF" fill-rule="evenodd"/><path d="M656.603 320.031C656.603 333.01 646.081 343.531 633.102 343.531 620.124 343.531 609.602 333.01 609.602 320.031 609.602 307.053 620.124 296.531 633.102 296.531 646.081 296.531 656.603 307.053 656.603 320.031" stroke="#000000" stroke-width="0.704042" stroke-miterlimit="8" stroke-dasharray="0 0" fill="none" fill-rule="evenodd"/><path d="M656.102 389.552C656.102 402.531 645.581 413.052 632.602 413.052 619.624 413.052 609.102 402.531 609.102 389.552 609.102 376.573 619.624 366.052 632.602 366.052 645.581 366.052 656.102 376.573 656.102 389.552" fill="#FFFFFF" fill-rule="evenodd"/><path d="M656.603 390.052C656.603 403.031 646.081 413.552 633.102 413.552 620.124 413.552 609.602 403.031 609.602 390.052 609.602 377.073 620.124 366.552 633.102 366.552 646.081 366.552 656.603 377.073 656.603 390.052" stroke="#000000" stroke-width="0.704042" stroke-miterlimit="8" stroke-dasharray="0 0" fill="none" fill-rule="evenodd"/><path d="M656.102 521.591C656.102 534.57 645.581 545.091 632.602 545.091 619.624 545.091 609.102 534.57 609.102 521.591 609.102 508.613 619.624 498.091 632.602 498.091 645.581 498.091 656.102 508.613 656.102 521.591" fill="#D0CECE" fill-rule="evenodd"/><path d="M656.603 522.091C656.603 535.07 646.081 545.591 633.102 545.591 620.124 545.591 609.602 535.07 609.602 522.091 609.602 509.113 620.124 498.591 633.102 498.591 646.081 498.591 656.603 509.113 656.603 522.091" stroke="#000000" stroke-width="0.704042" stroke-miterlimit="8" stroke-dasharray="0 0" fill="none" fill-rule="evenodd"/><path d="M745.129 250.511C745.129 263.489 734.608 274.011 721.629 274.011 708.65 274.011 698.129 263.489 698.129 250.511 698.129 237.532 708.65 227.011 721.629 227.011 734.608 227.011 745.129 237.532 745.129 250.511" fill="#FFFFFF" fill-rule="evenodd"/><path d="M745.629 251.011C745.629 263.989 735.108 274.511 722.129 274.511 709.15 274.511 698.629 263.989 698.629 251.011 698.629 238.032 709.15 227.511 722.129 227.511 735.108 227.511 745.629 238.032 745.629 251.011" stroke="#000000" stroke-width="0.704042" stroke-miterlimit="8" stroke-dasharray="0 0" fill="none" fill-rule="evenodd"/><path d="M744.129 320.531C744.129 333.51 733.607 344.032 720.629 344.032 707.65 344.032 697.129 333.51 697.129 320.531 697.129 307.553 707.65 297.032 720.629 297.032 733.607 297.032 744.129 307.553 744.129 320.531" fill="#D9D9D9" fill-rule="evenodd"/><path d="M744.629 321.032C744.629 334.01 734.107 344.532 721.129 344.532 708.15 344.532 697.629 334.01 697.629 321.032 697.629 308.053 708.15 297.532 721.129 297.532 734.107 297.532 744.629 308.053 744.629 321.032" stroke="#000000" stroke-width="0.704042" stroke-miterlimit="8" stroke-dasharray="0 0" fill="none" fill-rule="evenodd"/><path d="M744.129 391.552C744.129 404.531 733.607 415.053 720.629 415.053 707.65 415.053 697.129 404.531 697.129 391.552 697.129 378.574 707.65 368.053 720.629 368.053 733.607 368.053 744.129 378.574 744.129 391.552" fill="#FFFFFF" fill-rule="evenodd"/><path d="M744.629 392.053C744.629 405.031 734.107 415.553 721.129 415.553 708.15 415.553 697.629 405.031 697.629 392.053 697.629 379.074 708.15 368.553 721.129 368.553 734.107 368.553 744.629 379.074 744.629 392.053" stroke="#000000" stroke-width="0.704042" stroke-miterlimit="8" stroke-dasharray="0 0" fill="none" fill-rule="evenodd"/><path d="M745.129 522.592C745.129 535.57 734.608 546.092 721.629 546.092 708.65 546.092 698.129 535.57 698.129 522.592 698.129 509.613 708.65 499.092 721.629 499.092 734.608 499.092 745.129 509.613 745.129 522.592" fill="#F2F2F2" fill-rule="evenodd"/><path d="M745.629 523.092C745.629 536.071 735.108 546.592 722.129 546.592 709.15 546.592 698.629 536.071 698.629 523.092 698.629 510.113 709.15 499.592 722.129 499.592 735.108 499.592 745.629 510.113 745.629 523.092" stroke="#000000" stroke-width="0.704042" stroke-miterlimit="8" stroke-dasharray="0 0" fill="none" fill-rule="evenodd"/><path d="M851.161 219.501C851.161 232.48 840.639 243.001 827.661 243.001 814.682 243.001 804.161 232.48 804.161 219.501 804.161 206.523 814.682 196.001 827.661 196.001 840.639 196.001 851.161 206.523 851.161 219.501" fill="#D6DCE5" fill-rule="evenodd"/><path d="M851.661 220.001C851.661 232.98 841.139 243.501 828.161 243.501 815.182 243.501 804.661 232.98 804.661 220.001 804.661 207.023 815.182 196.501 828.161 196.501 841.139 196.501 851.661 207.023 851.661 220.001" stroke="#000000" stroke-width="0.704042" stroke-miterlimit="8" stroke-dasharray="0 0" fill="none" fill-rule="evenodd"/><path d="M851.661 291.022C851.661 304.001 841.139 314.522 828.161 314.522 815.182 314.522 804.661 304.001 804.661 291.022 804.661 278.044 815.182 267.522 828.161 267.522 841.139 267.522 851.661 278.044 851.661 291.022" stroke="#9DC3E6" stroke-width="0.352021" stroke-miterlimit="8" fill="#285FF5" fill-rule="evenodd"/><path d="M851.661 291.022C851.661 304.001 841.139 314.522 828.161 314.522 815.182 314.522 804.661 304.001 804.661 291.022 804.661 278.044 815.182 267.522 828.161 267.522 841.139 267.522 851.661 278.044 851.661 291.022" stroke="#000000" stroke-width="0.704042" stroke-miterlimit="8" stroke-dasharray="0 0" fill="none" fill-rule="evenodd"/><path d="M851.161 362.544C851.161 375.523 840.639 386.044 827.661 386.044 814.682 386.044 804.161 375.523 804.161 362.544 804.161 349.565 814.682 339.044 827.661 339.044 840.639 339.044 851.161 349.565 851.161 362.544" fill="#DEEBF7" fill-rule="evenodd"/><path d="M851.661 363.044C851.661 376.023 841.139 386.544 828.161 386.544 815.182 386.544 804.661 376.023 804.661 363.044 804.661 350.065 815.182 339.544 828.161 339.544 841.139 339.544 851.661 350.065 851.661 363.044" stroke="#000000" stroke-width="0.704042" stroke-miterlimit="8" stroke-dasharray="0 0" fill="none" fill-rule="evenodd"/><path d="M851.161 439.567C851.161 452.546 840.639 463.067 827.661 463.067 814.682 463.067 804.161 452.546 804.161 439.567 804.161 426.588 814.682 416.067 827.661 416.067 840.639 416.067 851.161 426.588 851.161 439.567" fill="#D6DCE5" fill-rule="evenodd"/><path d="M851.661 440.067C851.661 453.046 841.139 463.567 828.161 463.567 815.182 463.567 804.661 453.046 804.661 440.067 804.661 427.088 815.182 416.567 828.161 416.567 841.139 416.567 851.661 427.088 851.661 440.067" stroke="#000000" stroke-width="0.704042" stroke-miterlimit="8" stroke-dasharray="0 0" fill="none" fill-rule="evenodd"/><path d="M851.161 564.604C851.161 577.583 840.639 588.104 827.661 588.104 814.682 588.104 804.161 577.583 804.161 564.604 804.161 551.625 814.682 541.104 827.661 541.104 840.639 541.104 851.161 551.625 851.161 564.604" fill="#BDD7EE" fill-rule="evenodd"/><path d="M851.661 565.104C851.661 578.083 841.139 588.604 828.161 588.604 815.182 588.604 804.661 578.083 804.661 565.104 804.661 552.126 815.182 541.604 828.161 541.604 841.139 541.604 851.661 552.126 851.661 565.104" stroke="#000000" stroke-width="0.704042" stroke-miterlimit="8" stroke-dasharray="0 0" fill="none" fill-rule="evenodd"/><path d="M369.501 290.529C367.292 290.529 365.501 292.419 365.501 294.751L365.501 370.808C365.501 373.14 363.71 375.029 361.501 375.029 363.71 375.029 365.501 376.919 365.501 379.251L365.501 455.308C365.501 457.64 367.292 459.529 369.501 459.529" stroke="#000000" stroke-width="0.704042" stroke-miterlimit="8" stroke-dasharray="0 0" fill="none" fill-rule="evenodd"/><path d="M617.106 463.071C617.106 463.629 617.603 464.069 618.243 464.069 618.883 464.069 619.379 463.629 619.379 463.071 619.379 462.509 618.883 462.069 618.243 462.069 617.603 462.069 617.106 462.509 617.106 463.071ZM622.848 463.071C622.848 463.629 623.345 464.069 623.985 464.069 624.625 464.069 625.121 463.629 625.121 463.071 625.121 462.509 624.625 462.069 623.985 462.069 623.345 462.069 622.848 462.509 622.848 463.071ZM628.59 463.071C628.59 463.629 629.087 464.069 629.727 464.069 630.367 464.069 630.863 463.629 630.863 463.071 630.863 462.509 630.367 462.069 629.727 462.069 629.087 462.069 628.59 462.509 628.59 463.071ZM634.349 463.071C634.349 463.629 634.846 464.069 635.486 464.069 636.126 464.069 636.622 463.629 636.622 463.071 636.622 462.509 636.126 462.069 635.486 462.069 634.846 462.069 634.349 462.509 634.349 463.071ZM640.091 463.071C640.091 463.629 640.588 464.069 641.228 464.069 641.868 464.069 642.364 463.629 642.364 463.071 642.364 462.509 641.868 462.069 641.228 462.069 640.588 462.069 640.091 462.509 640.091 463.071ZM645.833 463.071C645.833 463.629 646.33 464.069 646.97 464.069 647.609 464.069 648.106 463.629 648.106 463.071 648.106 462.509 647.609 462.069 646.97 462.069 646.33 462.069 645.833 462.509 645.833 463.071Z" fill="#19191A" fill-rule="evenodd"/><path d="M706.133 464.071C706.133 464.63 706.63 465.069 707.27 465.069 707.91 465.069 708.406 464.63 708.406 464.071 708.406 463.509 707.91 463.069 707.27 463.069 706.63 463.069 706.133 463.509 706.133 464.071ZM711.875 464.071C711.875 464.63 712.372 465.069 713.012 465.069 713.652 465.069 714.148 464.63 714.148 464.071 714.148 463.509 713.652 463.069 713.012 463.069 712.372 463.069 711.875 463.509 711.875 464.071ZM717.617 464.071C717.617 464.63 718.114 465.069 718.754 465.069 719.394 465.069 719.89 464.63 719.89 464.071 719.89 463.509 719.394 463.069 718.754 463.069 718.114 463.069 717.617 463.509 717.617 464.071ZM723.376 464.071C723.376 464.63 723.873 465.069 724.513 465.069 725.153 465.069 725.649 464.63 725.649 464.071 725.649 463.509 725.153 463.069 724.513 463.069 723.873 463.069 723.376 463.509 723.376 464.071ZM729.118 464.071C729.118 464.63 729.615 465.069 730.255 465.069 730.895 465.069 731.391 464.63 731.391 464.071 731.391 463.509 730.895 463.069 730.255 463.069 729.615 463.069 729.118 463.509 729.118 464.071ZM734.86 464.071C734.86 464.63 735.357 465.069 735.997 465.069 736.637 465.069 737.133 464.63 737.133 464.071 737.133 463.509 736.637 463.069 735.997 463.069 735.357 463.069 734.86 463.509 734.86 464.071Z" fill="#19191A" fill-rule="evenodd"/><path d="M812.165 502.081C812.165 502.64 812.662 503.08 813.302 503.08 813.942 503.08 814.439 502.64 814.439 502.081 814.439 501.519 813.942 501.079 813.302 501.079 812.662 501.079 812.165 501.519 812.165 502.081ZM817.907 502.081C817.907 502.64 818.404 503.08 819.044 503.08 819.684 503.08 820.181 502.64 820.181 502.081 820.181 501.519 819.684 501.079 819.044 501.079 818.404 501.079 817.907 501.519 817.907 502.081ZM823.649 502.081C823.649 502.64 824.146 503.08 824.786 503.08 825.426 503.08 825.923 502.64 825.923 502.081 825.923 501.519 825.426 501.079 824.786 501.079 824.146 501.079 823.649 501.519 823.649 502.081ZM829.408 502.081C829.408 502.64 829.905 503.08 830.545 503.08 831.185 503.08 831.682 502.64 831.682 502.081 831.682 501.519 831.185 501.079 830.545 501.079 829.905 501.079 829.408 501.519 829.408 502.081ZM835.15 502.081C835.15 502.64 835.647 503.08 836.287 503.08 836.927 503.08 837.424 502.64 837.424 502.081 837.424 501.519 836.927 501.079 836.287 501.079 835.647 501.079 835.15 501.519 835.15 502.081ZM840.892 502.081C840.892 502.64 841.389 503.08 842.029 503.08 842.669 503.08 843.166 502.64 843.166 502.081 843.166 501.519 842.669 501.079 842.029 501.079 841.389 501.079 840.892 501.519 840.892 502.081Z" fill="#19191A" fill-rule="evenodd"/><path d="M698.095 251.017 695.095 249.017 695.095 253.017 698.095 251.017Z" fill-rule="evenodd"/><path d="M656.617 251.55 696.617 251.55" stroke="#000000" stroke-width="0.704042" stroke-miterlimit="8" stroke-dasharray="0 0" fill="none" fill-rule="evenodd"/><path d="M697.094 321.13 694.187 319.036 694.094 323.036 697.094 321.13Z" fill-rule="evenodd"/><path d="M656.617 320.536 695.617 321.536" stroke="#000000" stroke-width="0.704042" stroke-miterlimit="8" stroke-dasharray="0 0" fill="none" fill-rule="evenodd"/><path d="M697.094 391.166 694.201 389.056 694.094 393.056 697.094 391.166Z" fill-rule="evenodd"/><path d="M656.617 390.548 695.617 391.548" stroke="#000000" stroke-width="0.704042" stroke-miterlimit="8" stroke-dasharray="0 0" fill="none" fill-rule="evenodd"/><path d="M698.095 521.616 695.095 519.116 695.095 524.116 698.095 521.616Z" fill-rule="evenodd"/><path d="M656.617 521.598 696.617 521.598" stroke="#000000" stroke-width="0.704042" stroke-miterlimit="8" stroke-dasharray="0 0" fill="none" fill-rule="evenodd"/><path d="M697.095 321.017 697.081 317.017 694.095 319.031 697.095 321.017Z" fill-rule="evenodd"/><path d="M656.617 251.518 696.617 319.518" stroke="#000000" stroke-width="0.704042" stroke-miterlimit="8" stroke-dasharray="0 0" fill="none" fill-rule="evenodd"/><path d="M697.124 391.017 698.115 387.017 694.115 388.169 697.124 391.017Z" fill-rule="evenodd"/><path d="M656.618 251.518 697.618 389.518" stroke="#000000" stroke-width="0.704042" stroke-linejoin="round" stroke-miterlimit="10" stroke-dasharray="0 0" fill="none" fill-rule="evenodd"/><path d="M698.646 523.018 700.111 519.018 696.111 519.672 698.646 523.018Z" fill-rule="evenodd"/><path d="M656.617 251.518 698.617 521.518" stroke="#000000" stroke-width="0.704042" stroke-linejoin="round" stroke-miterlimit="10" stroke-dasharray="0 0" fill="none" fill-rule="evenodd"/><path d="M698.094 251.036 695.094 252.96 698.019 255.036 698.094 251.036Z" fill-rule="evenodd"/><path d="M656.617 320.539 697.617 252.539" stroke="#000000" stroke-width="0.704042" stroke-linejoin="round" stroke-miterlimit="10" stroke-dasharray="0 0" fill="none" fill-rule="evenodd"/><path d="M698.159 251.057 695.115 253.871 699.115 255.057 698.159 251.057Z" fill-rule="evenodd"/><path d="M656.618 390.559 698.618 253.559" stroke="#000000" stroke-width="0.704042" stroke-linejoin="round" stroke-miterlimit="10" stroke-dasharray="0 0" fill="none" fill-rule="evenodd"/><path d="M697.204 391.095 694.115 393.867 698.115 395.095 697.204 391.095Z" fill-rule="evenodd"/><path d="M656.618 521.598 697.618 393.598" stroke="#000000" stroke-width="0.704042" stroke-linejoin="round" stroke-miterlimit="10" stroke-dasharray="0 0" fill="none" fill-rule="evenodd"/><path d="M697.819 321.098 695.112 324.255 699.112 325.098 697.819 321.098Z" fill-rule="evenodd"/><path d="M656.618 521.598 697.618 323.598" stroke="#000000" stroke-width="0.704042" stroke-linejoin="round" stroke-miterlimit="10" stroke-dasharray="0 0" fill="none" fill-rule="evenodd"/><path d="M698.648 251.1 696.111 254.443 700.111 255.1 698.648 251.1Z" fill-rule="evenodd"/><path d="M656.617 521.598 698.617 253.598" stroke="#000000" stroke-width="0.704042" stroke-linejoin="round" stroke-miterlimit="10" stroke-dasharray="0 0" fill="none" fill-rule="evenodd"/><path d="M697.085 391.036 697.095 387.036 694.095 389.026 697.085 391.036Z" fill-rule="evenodd"/><path d="M656.617 320.538 696.617 389.538" stroke="#000000" stroke-width="0.704042" stroke-linejoin="round" stroke-miterlimit="10" stroke-dasharray="0 0" fill="none" fill-rule="evenodd"/><path d="M698.209 523.057 699.115 519.057 695.115 520.291 698.209 523.057Z" fill-rule="evenodd"/><path d="M656.618 390.559 698.618 521.559" stroke="#000000" stroke-width="0.704042" stroke-linejoin="round" stroke-miterlimit="10" stroke-dasharray="0 0" fill="none" fill-rule="evenodd"/><path d="M698.829 523.038 700.112 519.038 696.112 519.891 698.829 523.038Z" fill-rule="evenodd"/><path d="M656.618 320.538 698.618 521.538" stroke="#000000" stroke-width="0.704042" stroke-linejoin="round" stroke-miterlimit="10" stroke-dasharray="0 0" fill="none" fill-rule="evenodd"/><path d="M804.135 219.193 800.135 219.019 802.002 223.019 804.135 219.193Z" fill-rule="evenodd"/><path d="M745.645 251.518 803.645 221.518" stroke="#000000" stroke-width="0.704042" stroke-linejoin="round" stroke-miterlimit="10" stroke-dasharray="0 0" fill="none" fill-rule="evenodd"/><path d="M804.116 220.036 801.116 221.996 804.076 224.037 804.116 220.036Z" fill-rule="evenodd"/><path d="M744.642 321.539 803.643 221.539" stroke="#000000" stroke-width="0.704042" stroke-linejoin="round" stroke-miterlimit="10" stroke-dasharray="0 0" fill="none" fill-rule="evenodd"/><path d="M804.356 220.057 801.143 222.712 805.143 224.057 804.356 220.057Z" fill-rule="evenodd"/><path d="M744.644 391.559 804.644 222.559" stroke="#000000" stroke-width="0.704042" stroke-linejoin="round" stroke-miterlimit="10" stroke-dasharray="0 0" fill="none" fill-rule="evenodd"/><path d="M804.812 220.099 802.138 223.29 806.138 224.099 804.812 220.099Z" fill-rule="evenodd"/><path d="M745.644 523.599 804.644 222.599" stroke="#000000" stroke-width="0.704042" stroke-linejoin="round" stroke-miterlimit="10" stroke-dasharray="0 0" fill="none" fill-rule="evenodd"/><path d="M697.095 321.056 694.095 323.014 697.053 325.056 697.095 321.056Z" fill-rule="evenodd"/><path d="M656.617 390.559 696.617 323.559" stroke="#000000" stroke-width="0.704042" stroke-linejoin="round" stroke-miterlimit="10" stroke-dasharray="0 0" fill="none" fill-rule="evenodd"/><path d="M804.135 290.263 800.135 290.041 801.964 294.041 804.135 290.263Z" fill-rule="evenodd"/><path d="M744.644 321.539 803.645 291.539" stroke="#000000" stroke-width="0.704042" stroke-linejoin="round" stroke-miterlimit="10" stroke-dasharray="0 0" fill="none" fill-rule="evenodd"/><path d="M804.135 363.04 802.42 359.04 800.135 362.678 804.135 363.04Z" fill-rule="evenodd"/><path d="M744.644 321.538 803.644 361.538" stroke="#000000" stroke-width="0.704042" stroke-linejoin="round" stroke-miterlimit="10" stroke-dasharray="0 0" fill="none" fill-rule="evenodd"/><path d="M804.904 440.046 805.151 435.046 801.151 437.307 804.904 440.046Z" fill-rule="evenodd"/><path d="M744.642 321.539 803.642 438.539" stroke="#000000" stroke-width="0.704042" stroke-linejoin="round" stroke-miterlimit="10" stroke-dasharray="0 0" fill="none" fill-rule="evenodd"/><path d="M804.345 564.057 805.143 560.057 801.143 561.393 804.345 564.057Z" fill-rule="evenodd"/><path d="M744.644 391.559 804.644 562.56" stroke="#000000" stroke-width="0.704042" stroke-linejoin="round" stroke-miterlimit="10" stroke-dasharray="0 0" fill="none" fill-rule="evenodd"/><path d="M804.136 564.077 802.449 561.077 800.136 563.78 804.136 564.077Z" fill-rule="evenodd"/><path d="M745.644 523.598 803.645 563.598" stroke="#000000" stroke-width="0.704042" stroke-linejoin="round" stroke-miterlimit="10" stroke-dasharray="0 0" fill="none" fill-rule="evenodd"/><path d="M804.743 564.038 806.174 560.038 801.174 561.036 804.743 564.038Z" fill-rule="evenodd"/><path d="M744.643 321.539 804.643 562.539" stroke="#000000" stroke-width="0.704042" stroke-linejoin="round" stroke-miterlimit="10" stroke-dasharray="0 0" fill="none" fill-rule="evenodd"/><path d="M804.135 290.019 802.36 286.019 800.135 289.73 804.135 290.019Z" fill-rule="evenodd"/><path d="M745.645 251.518 803.645 289.518" stroke="#000000" stroke-width="0.704042" stroke-linejoin="round" stroke-miterlimit="10" stroke-dasharray="0 0" fill="none" fill-rule="evenodd"/><path d="M804.116 290.056 801.116 292.012 804.072 294.056 804.116 290.056Z" fill-rule="evenodd"/><path d="M744.642 391.559 803.642 292.559" stroke="#000000" stroke-width="0.704042" stroke-linejoin="round" stroke-miterlimit="10" stroke-dasharray="0 0" fill="none" fill-rule="evenodd"/><path d="M804.773 290.097 801.174 293.074 806.174 294.097 804.773 290.097Z" fill-rule="evenodd"/><path d="M745.644 523.599 804.644 292.599" stroke="#000000" stroke-width="0.704042" stroke-linejoin="round" stroke-miterlimit="10" stroke-dasharray="0 0" fill="none" fill-rule="evenodd"/><path d="M804.135 362.412 800.135 362.062 801.861 366.062 804.135 362.412Z" fill-rule="evenodd"/><path d="M744.642 391.56 802.642 363.56" stroke="#000000" stroke-width="0.704042" stroke-linejoin="round" stroke-miterlimit="10" stroke-dasharray="0 0" fill="none" fill-rule="evenodd"/><path d="M804.137 440.06 802.68 436.06 800.136 439.397 804.137 440.06Z" fill-rule="evenodd"/><path d="M744.644 391.559 803.644 438.559" stroke="#000000" stroke-width="0.704042" stroke-linejoin="round" stroke-miterlimit="10" stroke-dasharray="0 0" fill="none" fill-rule="evenodd"/><path d="M804.982 363.021 805.153 358.021 801.153 360.358 804.982 363.021Z" fill-rule="evenodd"/><path d="M745.643 251.518 803.643 361.518" stroke="#000000" stroke-width="0.704042" stroke-linejoin="round" stroke-miterlimit="10" stroke-dasharray="0 0" fill="none" fill-rule="evenodd"/><path d="M804.224 440.017 805.142 436.017 801.142 437.24 804.224 440.017Z" fill-rule="evenodd"/><path d="M745.644 251.518 804.644 438.518" stroke="#000000" stroke-width="0.704042" stroke-linejoin="round" stroke-miterlimit="10" stroke-dasharray="0 0" fill="none" fill-rule="evenodd"/><path d="M804.79 564.018 806.138 560.018 802.138 560.802 804.79 564.018Z" fill-rule="evenodd"/><path d="M745.644 251.518 804.644 562.518" stroke="#000000" stroke-width="0.704042" stroke-linejoin="round" stroke-miterlimit="10" stroke-dasharray="0 0" fill="none" fill-rule="evenodd"/><path d="M804.112 440.094 801.111 441.765 803.8 444.094 804.112 440.094Z" fill-rule="evenodd"/><path d="M745.643 523.6 803.643 441.6" stroke="#000000" stroke-width="0.704042" stroke-linejoin="round" stroke-miterlimit="10" stroke-dasharray="0 0" fill="none" fill-rule="evenodd"/><path d="M804.421 363.095 801.144 365.691 805.144 367.095 804.421 363.095Z" fill-rule="evenodd"/><path d="M745.644 523.599 804.644 365.599" stroke="#000000" stroke-width="0.704042" stroke-linejoin="round" stroke-miterlimit="10" stroke-dasharray="0 0" fill="none" fill-rule="evenodd"/><text font-family="STZhongsong,STZhongsong_MSFontService,sans-serif" font-weight="400" font-size="21" transform="translate(425.464 635)">输入层</text><text font-family="STZhongsong,STZhongsong_MSFontService,sans-serif" font-weight="400" font-size="21" transform="translate(636.51 636)">隐藏</text><text font-family="STZhongsong,STZhongsong_MSFontService,sans-serif" font-weight="400" font-size="21" transform="translate(679.177 636)">层</text><text font-family="STZhongsong,STZhongsong_MSFontService,sans-serif" font-weight="400" font-size="21" transform="translate(789.597 633)">输出</text><text font-family="STZhongsong,STZhongsong_MSFontService,sans-serif" font-weight="400" font-size="21" transform="translate(832.263 633)">层</text><text font-family="Cambria Math,Cambria Math_MSFontService,sans-serif" font-weight="400" font-size="19" transform="translate(261.079 381)">21</text><text font-family="Cambria Math,Cambria Math_MSFontService,sans-serif" font-weight="400" font-size="19" transform="translate(285.892 381)">×</text><text font-family="Cambria Math,Cambria Math_MSFontService,sans-serif" font-weight="400" font-size="19" transform="translate(303.372 381)">21</text><text font-family="Cambria Math,Cambria Math_MSFontService,sans-serif" font-weight="400" font-size="19" transform="translate(328.186 381)">×</text><text font-family="Cambria Math,Cambria Math_MSFontService,sans-serif" font-weight="400" font-size="19" transform="translate(345.666 381)">𝑛</text><text font-family="Cambria Math,Cambria Math_MSFontService,sans-serif" font-weight="400" font-size="19" transform="translate(356.652 381)"></text><path d="M543.5 357 606.222 357 606.222 360 543.5 360ZM604.722 354 613.722 358.5 604.722 363Z" fill="#4169E1"/><path d="M870.5 287 933.222 287 933.222 290 870.5 290ZM931.722 284 940.722 288.5 931.722 293Z" fill="#4169E1"/><text font-family="STZhongsong,STZhongsong_MSFontService,sans-serif" font-weight="400" font-size="21" transform="translate(953.29 296)">最</text><text font-family="STZhongsong,STZhongsong_MSFontService,sans-serif" font-weight="400" font-size="21" transform="translate(974.624 296)">优估值动作</text></g></svg>