<svg xmlns="http://www.w3.org/2000/svg" xmlns:xlink="http://www.w3.org/1999/xlink" width="2122.006836" height="1296.676514" viewBox="0 0 2122.01 1296.68"><path d="M104.568 0L418.273 0L313.705 156.853L0 156.853L104.568 0Z" fill="#102E76" fill-opacity="1.000000" transform="matrix(1 0 0 1 246.812 571.409)"/><path d="M104.568 0L418.273 0L313.705 156.853L0 156.853L104.568 0Z" fill="none" stroke="#000000" stroke-opacity="1.000000" stroke-width="2" stroke-dasharray="0 0" transform="matrix(1 0 0 1 246.812 571.409)"/><path d="M104.568 0L418.273 0L313.705 156.853L0 156.853L104.568 0Z" fill="#1841A3" fill-opacity="1.000000" transform="matrix(1 0 0 1 246.812 524.353)"/><path d="M104.568 0L418.273 0L313.705 156.853L0 156.853L104.568 0Z" fill="none" stroke="#000000" stroke-opacity="1.000000" stroke-width="2" stroke-dasharray="0 0" transform="matrix(1 0 0 1 246.812 524.353)"/><path d="M104.568 0L418.273 0L313.705 156.853L0 156.853L104.568 0Z" fill="#285FF5" fill-opacity="1.000000" transform="matrix(1 0 0 1 246.812 479.911)"/><path d="M104.568 0L418.273 0L313.705 156.853L0 156.853L104.568 0Z" fill="none" stroke="#000000" stroke-opacity="1.000000" stroke-width="2" stroke-dasharray="0 0" transform="matrix(1 0 0 1 246.812 479.911)"/><path d="M104.568 0L418.273 0L313.705 156.853L0 156.853L104.568 0Z" fill="#4F85F6" fill-opacity="1.000000" transform="matrix(1 0 0 1 246.812 430.241)"/><path d="M104.568 0L418.273 0L313.705 156.853L0 156.853L104.568 0Z" fill="none" stroke="#000000" stroke-opacity="1.000000" stroke-width="2" stroke-dasharray="0 0" transform="matrix(1 0 0 1 246.812 430.241)"/><path d="M104.568 0L418.273 0L313.705 156.853L0 156.853L104.568 0Z" fill="#7FA5F8" fill-opacity="1.000000" transform="matrix(1 0 0 1 246.812 385.799)"/><path d="M104.568 0L418.273 0L313.705 156.853L0 156.853L104.568 0Z" fill="none" stroke="#000000" stroke-opacity="1.000000" stroke-width="2" stroke-dasharray="0 0" transform="matrix(1 0 0 1 246.812 385.799)"/><path d="M104.568 0L418.273 0L313.705 156.853L0 156.853L104.568 0Z" fill="#ADC5FA" fill-opacity="1.000000" transform="matrix(1 0 0 1 246.812 338.744)"/><path d="M104.568 0L418.273 0L313.705 156.853L0 156.853L104.568 0Z" fill="none" stroke="#000000" stroke-opacity="1.000000" stroke-width="2" stroke-dasharray="0 0" transform="matrix(1 0 0 1 246.812 338.744)"/><path d="M104.568 0L418.273 0L313.705 156.853L0 156.853L104.568 0Z" fill="#D6E1FC" fill-opacity="1.000000" transform="matrix(1 0 0 1 246.812 291.688)"/><path d="M104.568 0L418.273 0L313.705 156.853L0 156.853L104.568 0Z" fill="none" stroke="#000000" stroke-opacity="1.000000" stroke-width="2" stroke-dasharray="0 0" transform="matrix(1 0 0 1 246.812 291.688)"/><path d="M239.586 6.10352e-05L229.194 -5.99994L229.194 6.00006L239.586 6.10352e-05Z" transform="matrix(1 0 0 1 696.432 541.201)" fill="#000000" fill-opacity="1.000000" stroke="none"/><path d="M0 0L233.586 6.10352e-05" fill="none" stroke="#000000" stroke-opacity="1.000000" stroke-width="2" stroke-dasharray="0 0" transform="matrix(1 0 0 1 696.432 541.201)"/><path d="M17.4258 42.4805L13.7812 43.3477L13.7812 37.4414L17.5664 37.4414L17.5664 34.1719L13.7812 34.1719L13.7812 27.0234L10.6523 27.0234L10.6523 34.1719L6.48047 34.1719C7.67578 30.8672 8.88281 26.9297 9.84375 22.8516L17.6602 22.8516L17.6602 19.582L10.5586 19.582C10.8984 17.8594 11.2266 16.125 11.4727 14.4492L8.15625 13.9219C7.96875 15.8438 7.67578 17.707 7.34766 19.582L2.40234 19.582L2.40234 22.8516L6.66797 22.8516C5.90625 26.7891 4.94531 30 4.51172 31.2422C3.84375 33.3633 3.26953 34.8984 2.49609 35.1328C2.88281 35.9062 3.41016 37.4883 3.55078 38.1562C3.98438 37.7227 5.37891 37.4414 6.91406 37.4414L10.6523 37.4414L10.6523 44.0625C7.44141 44.7891 4.51172 45.5039 2.20312 45.9375L2.97656 49.2422C5.22656 48.7148 7.875 48.0469 10.6523 47.332L10.6523 57.6445L13.7812 57.6445L13.7812 46.5117L17.707 45.5039L17.4258 42.4805ZM22.8984 44.9766L22.8984 41.0391L29.4727 41.0391L29.4727 44.9766L22.8984 44.9766ZM29.4727 34.5586L29.4727 38.3086L22.8984 38.3086L22.8984 34.5586L29.4727 34.5586ZM32.4492 31.6758L19.9688 31.6758L19.9688 57.5039L22.8984 57.5039L22.8984 47.6602L29.4727 47.6602L29.4727 53.9062C29.4727 54.3398 29.3789 54.4336 28.9453 54.4805C28.5117 54.4805 27.2695 54.4805 25.7812 54.4336C26.2031 55.3008 26.5898 56.543 26.6836 57.4102C28.7461 57.4102 30.2344 57.3633 31.1953 56.8359C32.2031 56.3086 32.4492 55.4414 32.4492 53.9062L32.4492 31.6758ZM41.2266 53.6133C41.2266 54.1875 41.0391 54.3398 40.4648 54.3398C39.8438 54.3867 37.9688 54.3867 35.7656 54.3398C36.2344 55.1953 36.5742 56.4492 36.7148 57.2695C39.5508 57.2695 41.4258 57.2109 42.6211 56.6836C43.7812 56.2031 44.1094 55.3477 44.1094 53.6133L44.1094 30.8203L41.2266 30.8203L41.2266 53.6133ZM37.9219 32.543L35.1328 32.543L35.1328 49.7812L37.9219 49.7812L37.9219 32.543ZM24.1875 25.582C26.9297 23.6602 29.4258 21.3633 31.582 18.8672C33.9844 21.5508 36.668 23.707 39.5977 25.582L24.1875 25.582ZM31.5352 13.6758C28.418 18.7148 22.5117 23.4258 16.7578 26.1094C17.5664 26.8359 18.5273 27.9375 19.0547 28.7578C20.3555 28.0781 21.6445 27.3164 22.8984 26.4961L22.8984 28.5117L40.5586 28.5117L40.5586 26.2031C41.7656 26.9297 43.0078 27.5977 44.3086 28.2773C44.7891 27.2695 45.7383 26.2031 46.5586 25.4883C41.5664 23.332 37.0078 20.6367 33.4102 16.5586C33.7969 16.0312 34.125 15.5039 34.4648 15.0234L31.5352 13.6758ZM62.2618 17.9531C65.379 20.1094 67.8282 22.8047 69.8907 25.7227C66.8204 39.2695 60.8673 48.9609 50.1563 54.4805C51.1173 55.1484 52.7579 56.5898 53.379 57.3633C63.0235 51.6914 69.1173 42.9141 72.7735 30.4336C78.047 40.0312 81.3634 51.0703 92.3087 57.1641C92.5431 56.1094 93.4102 54.1406 94.0782 53.2266C78.1876 43.7227 79.629 25.7812 64.4181 14.8828L62.2618 17.9531ZM134.836 19.2539L134.836 24.9609L106.078 24.9609L106.078 19.2539L134.836 19.2539ZM138.387 28.0781L138.387 16.125L102.574 16.125L102.574 30.0938C102.574 37.6758 102.141 48.3398 97.676 55.8281C98.59 56.1562 100.172 57.0234 100.852 57.5977C105.457 49.7812 106.078 38.1094 106.078 30.0469L106.078 28.0781L138.387 28.0781ZM137.766 35.332L137.766 32.1562L110.684 32.1562L110.684 35.332L137.766 35.332ZM141.07 43.4883L141.07 40.3242L107.567 40.3242L107.567 43.4883L117.024 43.4883C114.914 47.0859 112.278 50.4492 111.41 51.457C110.356 52.6055 109.442 53.4727 108.621 53.6133C109.055 54.5273 109.676 56.2031 109.875 56.9297C111.363 56.4023 113.613 56.2031 134.449 54.7734C135.211 56.0625 135.844 57.1641 136.324 58.125L139.582 56.4961C137.906 53.6133 134.59 48.5742 131.906 44.8359L128.836 46.1719C130.078 47.9062 131.426 49.9688 132.715 51.9375L114.293 53.0391C116.836 50.3086 119.379 46.9453 121.629 43.4883L141.07 43.4883Z" fill="#19191A" fill-opacity="1.000000" transform="matrix(1 0 0 1 367.069 864.429)"/><path d="M133.325 66.6623C133.325 103.479 103.479 133.325 66.6623 133.325C29.8457 133.325 0 103.479 0 66.6623C0 29.8457 29.8457 0 66.6623 0C103.479 0 133.325 29.8457 133.325 66.6623" fill="#FFFFFF" fill-opacity="1.000000" transform="matrix(1 0 0 1 974.216 100.892)"/><path d="M133.325 66.6623C133.325 103.479 103.479 133.325 66.6623 133.325C29.8457 133.325 0 103.479 0 66.6623C0 29.8457 29.8457 0 66.6623 0C103.479 0 133.325 29.8457 133.325 66.6623" fill="none" stroke="#000000" stroke-opacity="1.000000" stroke-width="2" stroke-dasharray="0 0" transform="matrix(1 0 0 1 974.216 100.892)"/><path d="M133.325 66.6623C133.325 103.479 103.479 133.325 66.6623 133.325C29.8457 133.325 0 103.479 0 66.6623C0 29.8457 29.8457 0 66.6623 0C103.479 0 133.325 29.8457 133.325 66.6623" fill="#FFFFFF" fill-opacity="1.000000" transform="matrix(1 0 0 1 974.216 297.202)"/><path d="M133.325 66.6623C133.325 103.479 103.479 133.325 66.6623 133.325C29.8457 133.325 0 103.479 0 66.6623C0 29.8457 29.8457 0 66.6623 0C103.479 0 133.325 29.8457 133.325 66.6623" fill="none" stroke="#000000" stroke-opacity="1.000000" stroke-width="2" stroke-dasharray="0 0" transform="matrix(1 0 0 1 974.216 297.202)"/><path d="M133.325 66.6623C133.325 103.479 103.479 133.325 66.6623 133.325C29.8457 133.325 0 103.479 0 66.6623C0 29.8457 29.8457 0 66.6623 0C103.479 0 133.325 29.8457 133.325 66.6623" fill="#FFFFFF" fill-opacity="1.000000" transform="matrix(1 0 0 1 974.216 496.137)"/><path d="M133.325 66.6623C133.325 103.479 103.479 133.325 66.6623 133.325C29.8457 133.325 0 103.479 0 66.6623C0 29.8457 29.8457 0 66.6623 0C103.479 0 133.325 29.8457 133.325 66.6623" fill="none" stroke="#000000" stroke-opacity="1.000000" stroke-width="2" stroke-dasharray="0 0" transform="matrix(1 0 0 1 974.216 496.137)"/><path d="M133.325 66.6623C133.325 103.479 103.479 133.325 66.6623 133.325C29.8457 133.325 0 103.479 0 66.6623C0 29.8457 29.8457 0 66.6623 0C103.479 0 133.325 29.8457 133.325 66.6623" fill="#FFFFFF" fill-opacity="1.000000" transform="matrix(1 0 0 1 974.216 869.766)"/><path d="M133.325 66.6623C133.325 103.479 103.479 133.325 66.6623 133.325C29.8457 133.325 0 103.479 0 66.6623C0 29.8457 29.8457 0 66.6623 0C103.479 0 133.325 29.8457 133.325 66.6623" fill="none" stroke="#000000" stroke-opacity="1.000000" stroke-width="2" stroke-dasharray="0 0" transform="matrix(1 0 0 1 974.216 869.766)"/><path d="M133.325 66.6623C133.325 103.479 103.479 133.325 66.6623 133.325C29.8457 133.325 0 103.479 0 66.6623C0 29.8457 29.8457 0 66.6623 0C103.479 0 133.325 29.8457 133.325 66.6623" fill="#FFFFFF" fill-opacity="1.000000" transform="matrix(1 0 0 1 1226.7 100.892)"/><path d="M133.325 66.6623C133.325 103.479 103.479 133.325 66.6623 133.325C29.8457 133.325 0 103.479 0 66.6623C0 29.8457 29.8457 0 66.6623 0C103.479 0 133.325 29.8457 133.325 66.6623" fill="none" stroke="#000000" stroke-opacity="1.000000" stroke-width="2" stroke-dasharray="0 0" transform="matrix(1 0 0 1 1226.7 100.892)"/><path d="M133.325 66.6623C133.325 103.479 103.479 133.325 66.6623 133.325C29.8457 133.325 0 103.479 0 66.6623C0 29.8457 29.8457 0 66.6623 0C103.479 0 133.325 29.8457 133.325 66.6623" fill="#FFFFFF" fill-opacity="1.000000" transform="matrix(1 0 0 1 1223.77 300.353)"/><path d="M133.325 66.6623C133.325 103.479 103.479 133.325 66.6623 133.325C29.8457 133.325 0 103.479 0 66.6623C0 29.8457 29.8457 0 66.6623 0C103.479 0 133.325 29.8457 133.325 66.6623" fill="none" stroke="#000000" stroke-opacity="1.000000" stroke-width="2" stroke-dasharray="0 0" transform="matrix(1 0 0 1 1223.77 300.353)"/><path d="M133.325 66.6623C133.325 103.479 103.479 133.325 66.6623 133.325C29.8457 133.325 0 103.479 0 66.6623C0 29.8457 29.8457 0 66.6623 0C103.479 0 133.325 29.8457 133.325 66.6623" fill="#FFFFFF" fill-opacity="1.000000" transform="matrix(1 0 0 1 1223.77 499.816)"/><path d="M133.325 66.6623C133.325 103.479 103.479 133.325 66.6623 133.325C29.8457 133.325 0 103.479 0 66.6623C0 29.8457 29.8457 0 66.6623 0C103.479 0 133.325 29.8457 133.325 66.6623" fill="none" stroke="#000000" stroke-opacity="1.000000" stroke-width="2" stroke-dasharray="0 0" transform="matrix(1 0 0 1 1223.77 499.816)"/><path d="M133.325 66.6623C133.325 103.479 103.479 133.325 66.6623 133.325C29.8457 133.325 0 103.479 0 66.6623C0 29.8457 29.8457 0 66.6623 0C103.479 0 133.325 29.8457 133.325 66.6623" fill="#FFFFFF" fill-opacity="1.000000" transform="matrix(1 0 0 1 1226.7 873.443)"/><path d="M133.325 66.6623C133.325 103.479 103.479 133.325 66.6623 133.325C29.8457 133.325 0 103.479 0 66.6623C0 29.8457 29.8457 0 66.6623 0C103.479 0 133.325 29.8457 133.325 66.6623" fill="none" stroke="#000000" stroke-opacity="1.000000" stroke-width="2" stroke-dasharray="0 0" transform="matrix(1 0 0 1 1226.7 873.443)"/><path d="M133.325 66.6623C133.325 103.479 103.479 133.325 66.6623 133.325C29.8457 133.325 0 103.479 0 66.6623C0 29.8457 29.8457 0 66.6623 0C103.479 0 133.325 29.8457 133.325 66.6623" fill="#F2A984" fill-opacity="1.000000" transform="matrix(1 0 0 1 1527.76 12.4737)"/><path d="M133.325 66.6623C133.325 103.479 103.479 133.325 66.6623 133.325C29.8457 133.325 0 103.479 0 66.6623C0 29.8457 29.8457 0 66.6623 0C103.479 0 133.325 29.8457 133.325 66.6623" fill="none" stroke="#000000" stroke-opacity="1.000000" stroke-width="2" stroke-dasharray="0 0" transform="matrix(1 0 0 1 1527.76 12.4737)"/><path d="M133.325 66.6623C133.325 103.479 103.479 133.325 66.6623 133.325C29.8457 133.325 0 103.479 0 66.6623C0 29.8457 29.8457 0 66.6623 0C103.479 0 133.325 29.8457 133.325 66.6623" fill="#A0451A" fill-opacity="1.000000" transform="matrix(1 0 0 1 1527.76 212.77)"/><path d="M133.325 66.6623C133.325 103.479 103.479 133.325 66.6623 133.325C29.8457 133.325 0 103.479 0 66.6623C0 29.8457 29.8457 0 66.6623 0C103.479 0 133.325 29.8457 133.325 66.6623" fill="none" stroke="#000000" stroke-opacity="1.000000" stroke-width="2" stroke-dasharray="0 0" transform="matrix(1 0 0 1 1527.76 212.77)"/><path d="M133.325 66.6623C133.325 103.479 103.479 133.325 66.6623 133.325C29.8457 133.325 0 103.479 0 66.6623C0 29.8457 29.8457 0 66.6623 0C103.479 0 133.325 29.8457 133.325 66.6623" fill="#EF8C56" fill-opacity="1.000000" transform="matrix(1 0 0 1 1527.76 418.511)"/><path d="M133.325 66.6623C133.325 103.479 103.479 133.325 66.6623 133.325C29.8457 133.325 0 103.479 0 66.6623C0 29.8457 29.8457 0 66.6623 0C103.479 0 133.325 29.8457 133.325 66.6623" fill="none" stroke="#000000" stroke-opacity="1.000000" stroke-width="2" stroke-dasharray="0 0" transform="matrix(1 0 0 1 1527.76 418.511)"/><path d="M133.325 66.6623C133.325 103.479 103.479 133.325 66.6623 133.325C29.8457 133.325 0 103.479 0 66.6623C0 29.8457 29.8457 0 66.6623 0C103.479 0 133.325 29.8457 133.325 66.6623" fill="#F6C7AF" fill-opacity="1.000000" transform="matrix(1 0 0 1 1527.76 637.579)"/><path d="M133.325 66.6623C133.325 103.479 103.479 133.325 66.6623 133.325C29.8457 133.325 0 103.479 0 66.6623C0 29.8457 29.8457 0 66.6623 0C103.479 0 133.325 29.8457 133.325 66.6623" fill="none" stroke="#000000" stroke-opacity="1.000000" stroke-width="2" stroke-dasharray="0 0" transform="matrix(1 0 0 1 1527.76 637.579)"/><path d="M133.325 66.6623C133.325 103.479 103.479 133.325 66.6623 133.325C29.8457 133.325 0 103.479 0 66.6623C0 29.8457 29.8457 0 66.6623 0C103.479 0 133.325 29.8457 133.325 66.6623" fill="#F6C7AF" fill-opacity="1.000000" transform="matrix(1 0 0 1 1527.76 991.602)"/><path d="M133.325 66.6623C133.325 103.479 103.479 133.325 66.6623 133.325C29.8457 133.325 0 103.479 0 66.6623C0 29.8457 29.8457 0 66.6623 0C103.479 0 133.325 29.8457 133.325 66.6623" fill="none" stroke="#000000" stroke-opacity="1.000000" stroke-width="2" stroke-dasharray="0 0" transform="matrix(1 0 0 1 1527.76 991.602)"/><path d="M34.8047 20.543C33.6914 22.2773 32.2031 24.1406 31.0078 25.4883L20.9766 25.4883C22.6992 23.9062 24.2344 22.2188 25.5352 20.543L34.8047 20.543ZM19.6758 26.6367L19.6758 28.2773L39.6914 28.2773L39.6914 32.2031L20.8359 32.2031L20.8359 34.8984L39.6914 34.8984L39.6914 39.1172L19.4414 39.1172L19.4414 41.9531L43.0547 41.9531L43.0547 25.4883L34.6523 25.4883C36.3398 23.5664 38.2617 21.2109 39.5039 19.1016L37.3477 17.6133L36.8203 17.8125L27.5039 17.8125C28.1719 16.8047 28.7461 15.8906 29.2852 14.9297L25.9688 14.3086C24.293 17.5195 21.2695 21.5508 17.2266 24.6211C18 25.0078 19.0547 26.0156 19.582 26.7305L19.6758 26.6367ZM35.7656 48.0469C34.0781 46.3242 30.7148 43.7227 28.125 42L25.9219 43.8281C28.6055 45.6914 31.875 48.4336 33.5508 50.2031L35.7656 48.0469ZM15.457 15.7383L14.9297 15.8906L4.03125 15.8906L4.03125 57.6914L7.19531 57.6914L7.19531 19.1484L13.582 19.1484C12.6211 22.418 11.1797 26.7305 9.79688 30.1875C13.1953 33.9375 14.1094 37.1484 14.1094 39.7383C14.1094 41.1328 13.875 42.4336 13.1016 42.9609C12.7148 43.2422 12.2344 43.3945 11.6133 43.3945C10.8516 43.4883 9.9375 43.4414 8.83594 43.3477C9.36328 44.2617 9.69141 45.5977 9.73828 46.5117C10.7578 46.5586 12 46.5117 12.9609 46.418C13.9219 46.3242 14.7891 46.0312 15.457 45.5508C16.7578 44.6367 17.332 42.5742 17.332 40.0312C17.332 37.1484 16.4648 33.6914 12.9609 29.8125C14.5898 25.9688 16.3711 21.0703 17.8125 17.1328L15.457 15.7383ZM17.707 56.3086C19.3008 53.707 20.6367 49.7812 21.457 46.8984L18.668 45.6914C17.9062 48.4805 16.5117 52.2773 14.9297 54.5273L17.707 56.3086ZM28.3711 54.2344C26.4961 54.2344 26.1562 54.0469 26.1562 53.0391L26.1562 45.8438L22.9453 45.8438L22.9453 53.0391C22.9453 56.3086 23.9531 57.2695 28.0781 57.2695L35.0859 57.2695C38.2617 57.2695 39.2695 56.1094 39.6445 51.3164C38.6836 51.0703 37.3945 50.5898 36.7148 50.1094C36.5273 53.7656 36.293 54.2344 34.7461 54.2344L28.3711 54.2344ZM37.7812 46.2188C39.8906 49.1484 42.0938 53.1328 43.0078 55.7812L45.8906 54.5742C44.9766 51.9375 42.7734 48.0469 40.5117 45.1172L37.7812 46.2188ZM67.1485 45.7969L71.379 45.7969L71.379 50.1094L67.1485 50.1094L67.1485 45.7969ZM71.379 33.9844L71.379 37.3477L67.1485 37.3477L67.1485 33.9844L71.379 33.9844ZM76.0782 43.3945L67.1485 43.3945L67.1485 39.6914L76.0782 39.6914L76.0782 43.3945ZM88.4649 31.4883C87.5977 35.8125 86.4493 39.7969 84.8673 43.3477C84.2931 39.4102 83.8126 34.5117 83.5665 28.4648L93.5509 28.4648L93.5509 25.3945L90.4337 25.3945L91.7227 24.3867C90.7149 23.2266 88.6993 21.6914 87.0235 20.7305L84.8673 22.3711C86.2618 23.1797 87.7384 24.3867 88.8517 25.3945L83.5196 25.3945C83.4727 24.4336 83.4727 23.4258 83.4727 22.418L81.4571 22.418L81.4571 20.2617L93.0235 20.2617L93.0235 17.2266L81.4571 17.2266L81.4571 13.875L77.9532 13.875L77.9532 17.2266L65.9063 17.2266L65.9063 13.875L62.4024 13.875L62.4024 17.2266L51.0704 17.2266L51.0704 20.2617L62.4024 20.2617L62.4024 23.5664L65.9063 23.5664L65.9063 20.2617L77.9532 20.2617L77.9532 23.6602L80.2618 23.6602L80.3087 25.3945L59.086 25.3945L59.086 32.7891L55.0548 32.7891L55.0548 25.0078L52.2774 25.0078L52.2774 35.3789L59.086 35.3789L59.086 38.5898L59.086 39.9844L50.2618 39.9844L50.2618 42.9609L52.8985 42.9609L52.8985 43.7812C52.8985 46.4648 52.4649 50.5898 49.5821 53.6133C50.2618 54 51.3165 54.7148 51.797 55.1953C55.0079 51.8438 55.629 46.9453 55.629 43.875L55.629 42.9609L58.9923 42.9609C58.7579 47.4727 58.0782 52.418 55.9688 56.2031C56.6837 56.4961 58.1251 57.3164 58.6524 57.7969C61.629 52.418 62.1095 44.4492 62.1095 38.5898L62.1095 28.4648L80.4024 28.4648C80.7892 36.4336 81.5509 42.8203 82.6056 47.6133C81.6446 49.2422 80.4962 50.7891 79.2423 52.125L79.2423 50.1094L73.9688 50.1094L73.9688 45.7969L78.6681 45.7969L78.6681 37.3477L73.9688 37.3477L73.9688 33.9844L78.5743 33.9844L78.5743 31.4883L64.5587 31.4883L64.5587 52.6055L78.8204 52.6055C77.7657 53.6602 76.6524 54.668 75.4102 55.582C76.172 56.1094 77.5665 57.1641 78.047 57.7969C80.2032 56.0625 82.1251 53.9531 83.8126 51.5977C85.2423 55.6758 87.211 57.7383 89.6134 57.7383C92.3087 57.7383 93.4571 56.4961 93.9845 50.1562C93.1642 49.9219 92.1563 49.1953 91.4415 48.6211C91.1954 53.332 90.7735 54.5273 89.8595 54.5273C88.4649 54.5273 87.0704 52.5117 85.922 48.3398C88.5587 43.7812 90.4337 38.2617 91.7227 32.0156L88.4649 31.4883ZM134.836 19.2539L134.836 24.9609L106.078 24.9609L106.078 19.2539L134.836 19.2539ZM138.387 28.0781L138.387 16.125L102.574 16.125L102.574 30.0938C102.574 37.6758 102.141 48.3398 97.676 55.8281C98.59 56.1562 100.172 57.0234 100.852 57.5977C105.457 49.7812 106.078 38.1094 106.078 30.0469L106.078 28.0781L138.387 28.0781ZM137.766 35.332L137.766 32.1562L110.684 32.1562L110.684 35.332L137.766 35.332ZM141.07 43.4883L141.07 40.3242L107.567 40.3242L107.567 43.4883L117.024 43.4883C114.914 47.0859 112.278 50.4492 111.41 51.457C110.356 52.6055 109.442 53.4727 108.621 53.6133C109.055 54.5273 109.676 56.2031 109.875 56.9297C111.363 56.4023 113.613 56.2031 134.449 54.7734C135.211 56.0625 135.844 57.1641 136.324 58.125L139.582 56.4961C137.906 53.6133 134.59 48.5742 131.906 44.8359L128.836 46.1719C130.078 47.9062 131.426 49.9688 132.715 51.9375L114.293 53.0391C116.836 50.3086 119.379 46.9453 121.629 43.4883L141.07 43.4883Z" fill="#19191A" fill-opacity="1.000000" transform="matrix(1 0 0 1 1090.08 1181.47)"/><path d="M17.4258 42.4805L13.7812 43.3477L13.7812 37.4414L17.5664 37.4414L17.5664 34.1719L13.7812 34.1719L13.7812 27.0234L10.6523 27.0234L10.6523 34.1719L6.48047 34.1719C7.67578 30.8672 8.88281 26.9297 9.84375 22.8516L17.6602 22.8516L17.6602 19.582L10.5586 19.582C10.8984 17.8594 11.2266 16.125 11.4727 14.4492L8.15625 13.9219C7.96875 15.8438 7.67578 17.707 7.34766 19.582L2.40234 19.582L2.40234 22.8516L6.66797 22.8516C5.90625 26.7891 4.94531 30 4.51172 31.2422C3.84375 33.3633 3.26953 34.8984 2.49609 35.1328C2.88281 35.9062 3.41016 37.4883 3.55078 38.1562C3.98438 37.7227 5.37891 37.4414 6.91406 37.4414L10.6523 37.4414L10.6523 44.0625C7.44141 44.7891 4.51172 45.5039 2.20312 45.9375L2.97656 49.2422C5.22656 48.7148 7.875 48.0469 10.6523 47.332L10.6523 57.6445L13.7812 57.6445L13.7812 46.5117L17.707 45.5039L17.4258 42.4805ZM22.8984 44.9766L22.8984 41.0391L29.4727 41.0391L29.4727 44.9766L22.8984 44.9766ZM29.4727 34.5586L29.4727 38.3086L22.8984 38.3086L22.8984 34.5586L29.4727 34.5586ZM32.4492 31.6758L19.9688 31.6758L19.9688 57.5039L22.8984 57.5039L22.8984 47.6602L29.4727 47.6602L29.4727 53.9062C29.4727 54.3398 29.3789 54.4336 28.9453 54.4805C28.5117 54.4805 27.2695 54.4805 25.7812 54.4336C26.2031 55.3008 26.5898 56.543 26.6836 57.4102C28.7461 57.4102 30.2344 57.3633 31.1953 56.8359C32.2031 56.3086 32.4492 55.4414 32.4492 53.9062L32.4492 31.6758ZM41.2266 53.6133C41.2266 54.1875 41.0391 54.3398 40.4648 54.3398C39.8438 54.3867 37.9688 54.3867 35.7656 54.3398C36.2344 55.1953 36.5742 56.4492 36.7148 57.2695C39.5508 57.2695 41.4258 57.2109 42.6211 56.6836C43.7812 56.2031 44.1094 55.3477 44.1094 53.6133L44.1094 30.8203L41.2266 30.8203L41.2266 53.6133ZM37.9219 32.543L35.1328 32.543L35.1328 49.7812L37.9219 49.7812L37.9219 32.543ZM24.1875 25.582C26.9297 23.6602 29.4258 21.3633 31.582 18.8672C33.9844 21.5508 36.668 23.707 39.5977 25.582L24.1875 25.582ZM31.5352 13.6758C28.418 18.7148 22.5117 23.4258 16.7578 26.1094C17.5664 26.8359 18.5273 27.9375 19.0547 28.7578C20.3555 28.0781 21.6445 27.3164 22.8984 26.4961L22.8984 28.5117L40.5586 28.5117L40.5586 26.2031C41.7656 26.9297 43.0078 27.5977 44.3086 28.2773C44.7891 27.2695 45.7383 26.2031 46.5586 25.4883C41.5664 23.332 37.0078 20.6367 33.4102 16.5586C33.7969 16.0312 34.125 15.5039 34.4648 15.0234L31.5352 13.6758ZM86.9767 37.6758L86.9767 51.3633L73.8282 51.3633L73.8282 34.6523L88.9454 34.6523L88.9454 18.1875L85.1017 18.1875L85.1017 31.1484L73.8282 31.1484L73.8282 13.875L69.9845 13.875L69.9845 31.1484L58.9923 31.1484L58.9923 18.2344L55.3009 18.2344L55.3009 34.6523L69.9845 34.6523L69.9845 51.3633L57.0235 51.3633L57.0235 37.6758L53.1798 37.6758L53.1798 54.8672L86.9767 54.8672L86.9767 57.5977L90.8204 57.5977L90.8204 37.6758L86.9767 37.6758ZM134.836 19.2539L134.836 24.9609L106.078 24.9609L106.078 19.2539L134.836 19.2539ZM138.387 28.0781L138.387 16.125L102.574 16.125L102.574 30.0938C102.574 37.6758 102.141 48.3398 97.676 55.8281C98.59 56.1562 100.172 57.0234 100.852 57.5977C105.457 49.7812 106.078 38.1094 106.078 30.0469L106.078 28.0781L138.387 28.0781ZM137.766 35.332L137.766 32.1562L110.684 32.1562L110.684 35.332L137.766 35.332ZM141.07 43.4883L141.07 40.3242L107.567 40.3242L107.567 43.4883L117.024 43.4883C114.914 47.0859 112.278 50.4492 111.41 51.457C110.356 52.6055 109.442 53.4727 108.621 53.6133C109.055 54.5273 109.676 56.2031 109.875 56.9297C111.363 56.4023 113.613 56.2031 134.449 54.7734C135.211 56.0625 135.844 57.1641 136.324 58.125L139.582 56.4961C137.906 53.6133 134.59 48.5742 131.906 44.8359L128.836 46.1719C130.078 47.9062 131.426 49.9688 132.715 51.9375L114.293 53.0391C116.836 50.3086 119.379 46.9453 121.629 43.4883L141.07 43.4883Z" fill="#19191A" fill-opacity="1.000000" transform="matrix(1 0 0 1 1521.23 1217.47)"/><path d="M175.928 0C169.3 0 163.928 5.37258 163.928 12L163.928 228.209C163.928 234.837 158.555 240.209 151.928 240.209C158.555 240.209 163.928 245.582 163.928 252.209L163.928 468.418C163.928 475.046 169.3 480.418 175.928 480.418" fill="none" stroke="#000000" stroke-opacity="1.000000" stroke-width="2" stroke-dasharray="0 0" transform="matrix(1 0 0 1 12.4737 279.882)"/><clipPath id="clip_1_139_0"><path d="M10.4737 492.099L158.401 492.099L158.401 934.084L10.4737 934.084L10.4737 492.099Z"/></clipPath><g clip-path="url(#clip_1_139_0)"><path d="M13.9857 253.217L30.5794 253.217L30.5794 250.369L23.2757 250.369C21.9398 250.369 20.3226 250.518 18.9515 250.624C25.1478 244.753 29.2874 239.392 29.2874 234.136C29.2874 229.425 26.3343 226.322 21.6234 226.322C18.2747 226.322 16.0072 227.869 13.8451 230.216L15.7523 232.088C17.1937 230.356 19.0658 229.02 21.2279 229.02C24.4974 229.02 26.0794 231.218 26.0794 234.241C26.0794 238.785 22.265 244.041 13.9857 251.274L13.9857 253.217ZM35.5477 253.217L50.0233 253.217L50.0233 250.483L44.7323 250.483L44.7323 226.832L42.2098 226.832C40.7684 227.658 39.0809 228.265 36.743 228.704L36.743 230.787L41.4188 230.787L41.4188 250.483L35.5477 250.483L35.5477 253.217ZM57.9096 236.263L60.7484 232.844L63.5961 236.263L65.1781 235.111L62.8754 231.367L66.7953 229.741L66.1889 227.913L62.0844 228.88L61.724 224.564L59.7816 224.564L59.4213 228.915L55.3168 227.913L54.6664 229.741L58.5951 231.367L56.3275 235.111L57.9096 236.263ZM70.7577 253.217L87.3515 253.217L87.3515 250.369L80.0478 250.369C78.7118 250.369 77.0946 250.518 75.7235 250.624C81.9198 244.753 86.0595 239.392 86.0595 234.136C86.0595 229.425 83.1064 226.322 78.3954 226.322C75.0468 226.322 72.7792 227.869 70.6171 230.216L72.5243 232.088C73.9657 230.356 75.8378 229.02 77.9999 229.02C81.2694 229.02 82.8515 231.218 82.8515 234.241C82.8515 238.785 79.037 244.041 70.7577 251.274L70.7577 253.217ZM92.3198 253.217L106.795 253.217L106.795 250.483L101.504 250.483L101.504 226.832L98.9819 226.832C97.5405 227.658 95.853 228.265 93.5151 228.704L93.5151 230.787L98.1909 230.787L98.1909 250.483L92.3198 250.483L92.3198 253.217ZM114.682 236.263L117.52 232.844L120.368 236.263L121.95 235.111L119.647 231.367L123.567 229.741L122.961 227.913L118.856 228.88L118.496 224.564L116.554 224.564L116.193 228.915L112.089 227.913L111.438 229.741L115.367 231.367L113.1 235.111L114.682 236.263ZM133.076 253.217L136.495 253.217C136.89 242.881 138.041 236.764 144.238 228.81L144.238 226.832L127.714 226.832L127.714 229.636L140.494 229.636C135.343 236.834 133.506 243.206 133.076 253.217Z" fill="#19191A" fill-opacity="1.000000" transform="matrix(1 0 0 1 12.4737 279.882)"/></g><path d="M4.85156 35.7656C4.85156 37.5352 6.23438 38.9297 8.01562 38.9297C9.79688 38.9297 11.1797 37.5352 11.1797 35.7656C11.1797 33.9844 9.79688 32.5898 8.01562 32.5898C6.23438 32.5898 4.85156 33.9844 4.85156 35.7656ZM20.8359 35.7656C20.8359 37.5352 22.2188 38.9297 24 38.9297C25.7812 38.9297 27.1641 37.5352 27.1641 35.7656C27.1641 33.9844 25.7812 32.5898 24 32.5898C22.2188 32.5898 20.8359 33.9844 20.8359 35.7656ZM36.8203 35.7656C36.8203 37.5352 38.2031 38.9297 39.9844 38.9297C41.7656 38.9297 43.1484 37.5352 43.1484 35.7656C43.1484 33.9844 41.7656 32.5898 39.9844 32.5898C38.2031 32.5898 36.8203 33.9844 36.8203 35.7656ZM52.8517 35.7656C52.8517 37.5352 54.2345 38.9297 56.0157 38.9297C57.797 38.9297 59.1798 37.5352 59.1798 35.7656C59.1798 33.9844 57.797 32.5898 56.0157 32.5898C54.2345 32.5898 52.8517 33.9844 52.8517 35.7656ZM68.836 35.7656C68.836 37.5352 70.2188 38.9297 72.0001 38.9297C73.7813 38.9297 75.1642 37.5352 75.1642 35.7656C75.1642 33.9844 73.7813 32.5898 72.0001 32.5898C70.2188 32.5898 68.836 33.9844 68.836 35.7656ZM84.8204 35.7656C84.8204 37.5352 86.2032 38.9297 87.9845 38.9297C89.7657 38.9297 91.1485 37.5352 91.1485 35.7656C91.1485 33.9844 89.7657 32.5898 87.9845 32.5898C86.2032 32.5898 84.8204 33.9844 84.8204 35.7656Z" fill="#19191A" fill-opacity="1.000000" transform="matrix(1 0 0 1 991.678 733.662)"/><path d="M4.85156 35.7656C4.85156 37.5352 6.23438 38.9297 8.01562 38.9297C9.79688 38.9297 11.1797 37.5352 11.1797 35.7656C11.1797 33.9844 9.79688 32.5898 8.01562 32.5898C6.23438 32.5898 4.85156 33.9844 4.85156 35.7656ZM20.8359 35.7656C20.8359 37.5352 22.2188 38.9297 24 38.9297C25.7812 38.9297 27.1641 37.5352 27.1641 35.7656C27.1641 33.9844 25.7812 32.5898 24 32.5898C22.2188 32.5898 20.8359 33.9844 20.8359 35.7656ZM36.8203 35.7656C36.8203 37.5352 38.2031 38.9297 39.9844 38.9297C41.7656 38.9297 43.1484 37.5352 43.1484 35.7656C43.1484 33.9844 41.7656 32.5898 39.9844 32.5898C38.2031 32.5898 36.8203 33.9844 36.8203 35.7656ZM52.8517 35.7656C52.8517 37.5352 54.2345 38.9297 56.0157 38.9297C57.797 38.9297 59.1798 37.5352 59.1798 35.7656C59.1798 33.9844 57.797 32.5898 56.0157 32.5898C54.2345 32.5898 52.8517 33.9844 52.8517 35.7656ZM68.836 35.7656C68.836 37.5352 70.2188 38.9297 72.0001 38.9297C73.7813 38.9297 75.1642 37.5352 75.1642 35.7656C75.1642 33.9844 73.7813 32.5898 72.0001 32.5898C70.2188 32.5898 68.836 33.9844 68.836 35.7656ZM84.8204 35.7656C84.8204 37.5352 86.2032 38.9297 87.9845 38.9297C89.7657 38.9297 91.1485 37.5352 91.1485 35.7656C91.1485 33.9844 89.7657 32.5898 87.9845 32.5898C86.2032 32.5898 84.8204 33.9844 84.8204 35.7656Z" fill="#19191A" fill-opacity="1.000000" transform="matrix(1 0 0 1 1244.16 737.339)"/><path d="M4.85156 35.7656C4.85156 37.5352 6.23438 38.9297 8.01562 38.9297C9.79688 38.9297 11.1797 37.5352 11.1797 35.7656C11.1797 33.9844 9.79688 32.5898 8.01562 32.5898C6.23438 32.5898 4.85156 33.9844 4.85156 35.7656ZM20.8359 35.7656C20.8359 37.5352 22.2188 38.9297 24 38.9297C25.7812 38.9297 27.1641 37.5352 27.1641 35.7656C27.1641 33.9844 25.7812 32.5898 24 32.5898C22.2188 32.5898 20.8359 33.9844 20.8359 35.7656ZM36.8203 35.7656C36.8203 37.5352 38.2031 38.9297 39.9844 38.9297C41.7656 38.9297 43.1484 37.5352 43.1484 35.7656C43.1484 33.9844 41.7656 32.5898 39.9844 32.5898C38.2031 32.5898 36.8203 33.9844 36.8203 35.7656ZM52.8517 35.7656C52.8517 37.5352 54.2345 38.9297 56.0157 38.9297C57.797 38.9297 59.1798 37.5352 59.1798 35.7656C59.1798 33.9844 57.797 32.5898 56.0157 32.5898C54.2345 32.5898 52.8517 33.9844 52.8517 35.7656ZM68.836 35.7656C68.836 37.5352 70.2188 38.9297 72.0001 38.9297C73.7813 38.9297 75.1642 37.5352 75.1642 35.7656C75.1642 33.9844 73.7813 32.5898 72.0001 32.5898C70.2188 32.5898 68.836 33.9844 68.836 35.7656ZM84.8204 35.7656C84.8204 37.5352 86.2032 38.9297 87.9845 38.9297C89.7657 38.9297 91.1485 37.5352 91.1485 35.7656C91.1485 33.9844 89.7657 32.5898 87.9845 32.5898C86.2032 32.5898 84.8204 33.9844 84.8204 35.7656Z" fill="#19191A" fill-opacity="1.000000" transform="matrix(1 0 0 1 1545.23 845.253)"/><path d="M130.154 0L119.762 -6L119.762 6L130.154 0Z" transform="matrix(1 0 0 1 1698.08 292.687)" fill="#000000" fill-opacity="1.000000" stroke="none"/><path d="M0 0L124.154 0" fill="none" stroke="#000000" stroke-opacity="1.000000" stroke-width="2" stroke-dasharray="0 0" transform="matrix(1 0 0 1 1698.08 292.687)"/><path d="M119.156 0L108.764 -6L108.764 6L119.156 0Z" transform="matrix(1 0 0 1 1107.54 167.554)" fill="#000000" fill-opacity="1.000000" stroke="none"/><path d="M0 0L113.156 0" fill="none" stroke="#000000" stroke-opacity="1.000000" stroke-width="2" stroke-dasharray="0 0" transform="matrix(1 0 0 1 1107.54 167.554)"/><path d="M116.224 3.15106L105.999 -3.12838L105.673 8.86721L116.224 3.15106Z" transform="matrix(1 0 0 1 1107.54 363.864)" fill="#000000" fill-opacity="1.000000" stroke="none"/><path d="M0 0L110.226 2.98845" fill="none" stroke="#000000" stroke-opacity="1.000000" stroke-width="2" stroke-dasharray="0 0" transform="matrix(1 0 0 1 1107.54 363.864)"/><path d="M116.224 3.67847L106.027 -2.64727L105.648 9.34672L116.224 3.67847Z" transform="matrix(1 0 0 1 1107.54 562.799)" fill="#000000" fill-opacity="1.000000" stroke="none"/><path d="M0 0L110.227 3.48866" fill="none" stroke="#000000" stroke-opacity="1.000000" stroke-width="2" stroke-dasharray="0 0" transform="matrix(1 0 0 1 1107.54 562.799)"/><path d="M119.212 -1.90735e-06L108.82 -6L108.82 6L119.212 -1.90735e-06Z" transform="matrix(1 0 0 1 1107.54 936.429)" fill="#000000" fill-opacity="1.000000" stroke="none"/><path d="M0 0L113.212 -1.90735e-06" fill="none" stroke="#000000" stroke-opacity="1.000000" stroke-width="2" stroke-dasharray="0 0" transform="matrix(1 0 0 1 1107.54 936.429)"/><path d="M116.224 199.461L116.176 187.462L105.808 193.503L116.224 199.461Z" transform="matrix(1 0 0 1 1107.54 167.554)" fill="#000000" fill-opacity="1.000000" stroke="none"/><path d="M0 0L113.203 194.277" fill="none" stroke="#000000" stroke-opacity="1.000000" stroke-width="2" stroke-dasharray="0 0" transform="matrix(1 0 0 1 1107.54 167.554)"/><path d="M116.224 398.924L119.078 387.269L107.557 390.625L116.224 398.924Z" transform="matrix(1 0 0 1 1107.54 167.554)" fill="#000000" fill-opacity="1.000000" stroke="none"/><path d="M0 0L114.546 393.164" fill="none" stroke="#000000" stroke-opacity="1.000000" stroke-width="2" stroke-linejoin="round" stroke-dasharray="0 0" transform="matrix(1 0 0 1 1107.54 167.554)"/><path d="M119.156 772.552L123.502 761.366L111.642 763.196L119.156 772.552Z" transform="matrix(1 0 0 1 1107.54 167.554)" fill="#000000" fill-opacity="1.000000" stroke="none"/><path d="M0 0L118.241 766.622" fill="none" stroke="#000000" stroke-opacity="1.000000" stroke-width="2" stroke-linejoin="round" stroke-dasharray="0 0" transform="matrix(1 0 0 1 1107.54 167.554)"/><path d="M119.156 -196.31L108.635 -190.54L118.893 -184.313L119.156 -196.31Z" transform="matrix(1 0 0 1 1107.54 363.864)" fill="#000000" fill-opacity="1.000000" stroke="none"/><path d="M0 0L116.043 -191.181" fill="none" stroke="#000000" stroke-opacity="1.000000" stroke-width="2" stroke-linejoin="round" stroke-dasharray="0 0" transform="matrix(1 0 0 1 1107.54 363.864)"/><path d="M119.156 -395.246L110.412 -387.028L121.901 -383.564L119.156 -395.246Z" transform="matrix(1 0 0 1 1107.54 562.799)" fill="#000000" fill-opacity="1.000000" stroke="none"/><path d="M0 0L117.424 -389.501" fill="none" stroke="#000000" stroke-opacity="1.000000" stroke-width="2" stroke-linejoin="round" stroke-dasharray="0 0" transform="matrix(1 0 0 1 1107.54 562.799)"/><path d="M116.224 -369.951L107.385 -361.835L118.834 -358.238L116.224 -369.951Z" transform="matrix(1 0 0 1 1107.54 936.429)" fill="#000000" fill-opacity="1.000000" stroke="none"/><path d="M0 0L114.426 -364.227" fill="none" stroke="#000000" stroke-opacity="1.000000" stroke-width="2" stroke-linejoin="round" stroke-dasharray="0 0" transform="matrix(1 0 0 1 1107.54 936.429)"/><path d="M116.224 -569.414L108.267 -560.431L120.025 -558.032L116.224 -569.414Z" transform="matrix(1 0 0 1 1107.54 936.429)" fill="#000000" fill-opacity="1.000000" stroke="none"/><path d="M0 0L115.024 -563.535" fill="none" stroke="#000000" stroke-opacity="1.000000" stroke-width="2" stroke-linejoin="round" stroke-dasharray="0 0" transform="matrix(1 0 0 1 1107.54 936.429)"/><path d="M119.156 -768.875L111.635 -759.524L123.493 -757.687L119.156 -768.875Z" transform="matrix(1 0 0 1 1107.54 936.429)" fill="#000000" fill-opacity="1.000000" stroke="none"/><path d="M0 0L118.237 -762.946" fill="none" stroke="#000000" stroke-opacity="1.000000" stroke-width="2" stroke-linejoin="round" stroke-dasharray="0 0" transform="matrix(1 0 0 1 1107.54 936.429)"/><path d="M116.224 202.614L116.258 190.614L105.849 196.585L116.224 202.614Z" transform="matrix(1 0 0 1 1107.54 363.864)" fill="#000000" fill-opacity="1.000000" stroke="none"/><path d="M0 0L113.239 197.409" fill="none" stroke="#000000" stroke-opacity="1.000000" stroke-width="2" stroke-linejoin="round" stroke-dasharray="0 0" transform="matrix(1 0 0 1 1107.54 363.864)"/><path d="M119.156 377.306L121.748 365.59L110.305 369.203L119.156 377.306Z" transform="matrix(1 0 0 1 1107.54 562.799)" fill="#000000" fill-opacity="1.000000" stroke="none"/><path d="M0 0L117.349 371.585" fill="none" stroke="#000000" stroke-opacity="1.000000" stroke-width="2" stroke-linejoin="round" stroke-dasharray="0 0" transform="matrix(1 0 0 1 1107.54 562.799)"/><path d="M119.156 576.242L122.927 564.85L111.176 567.28L119.156 576.242Z" transform="matrix(1 0 0 1 1107.54 363.864)" fill="#000000" fill-opacity="1.000000" stroke="none"/><path d="M0 0L117.941 570.366" fill="none" stroke="#000000" stroke-opacity="1.000000" stroke-width="2" stroke-linejoin="round" stroke-dasharray="0 0" transform="matrix(1 0 0 1 1107.54 363.864)"/><path d="M167.742 -88.4179L155.752 -88.88L161.347 -78.2644L167.742 -88.4179Z" transform="matrix(1 0 0 1 1360.02 167.554)" fill="#000000" fill-opacity="1.000000" stroke="none"/><path d="M0 0L162.435 -85.6201" fill="none" stroke="#000000" stroke-opacity="1.000000" stroke-width="2" stroke-linejoin="round" stroke-dasharray="0 0" transform="matrix(1 0 0 1 1360.02 167.554)"/><path d="M170.674 -287.879L160.213 -282L170.535 -275.88L170.674 -287.879Z" transform="matrix(1 0 0 1 1357.09 367.015)" fill="#000000" fill-opacity="1.000000" stroke="none"/><path d="M0 0L167.614 -282.718" fill="none" stroke="#000000" stroke-opacity="1.000000" stroke-width="2" stroke-linejoin="round" stroke-dasharray="0 0" transform="matrix(1 0 0 1 1357.09 367.015)"/><path d="M170.674 -487.342L161.576 -479.517L172.902 -475.551L170.674 -487.342Z" transform="matrix(1 0 0 1 1357.09 566.478)" fill="#000000" fill-opacity="1.000000" stroke="none"/><path d="M0 0L168.691 -481.679" fill="none" stroke="#000000" stroke-opacity="1.000000" stroke-width="2" stroke-linejoin="round" stroke-dasharray="0 0" transform="matrix(1 0 0 1 1357.09 566.478)"/><path d="M167.742 -860.97L159.866 -851.917L171.644 -849.622L167.742 -860.97Z" transform="matrix(1 0 0 1 1360.02 940.106)" fill="#000000" fill-opacity="1.000000" stroke="none"/><path d="M0 0L166.595 -855.08" fill="none" stroke="#000000" stroke-opacity="1.000000" stroke-width="2" stroke-linejoin="round" stroke-dasharray="0 0" transform="matrix(1 0 0 1 1360.02 940.106)"/><path d="M116.224 -195.784L105.76 -189.911L116.079 -183.786L116.224 -195.784Z" transform="matrix(1 0 0 1 1107.54 562.799)" fill="#000000" fill-opacity="1.000000" stroke="none"/><path d="M0 0L113.161 -190.625" fill="none" stroke="#000000" stroke-opacity="1.000000" stroke-width="2" stroke-linejoin="round" stroke-dasharray="0 0" transform="matrix(1 0 0 1 1107.54 562.799)"/><path d="M170.674 -87.5826L158.689 -88.1763L164.168 -77.5L170.674 -87.5826Z" transform="matrix(1 0 0 1 1357.09 367.015)" fill="#000000" fill-opacity="1.000000" stroke="none"/><path d="M0 0L165.336 -84.8433" fill="none" stroke="#000000" stroke-opacity="1.000000" stroke-width="2" stroke-linejoin="round" stroke-dasharray="0 0" transform="matrix(1 0 0 1 1357.09 367.015)"/><path d="M170.674 118.159L165.545 107.31L158.715 117.177L170.674 118.159Z" transform="matrix(1 0 0 1 1357.09 367.015)" fill="#000000" fill-opacity="1.000000" stroke="none"/><path d="M0 0L165.741 114.743" fill="none" stroke="#000000" stroke-opacity="1.000000" stroke-width="2" stroke-linejoin="round" stroke-dasharray="0 0" transform="matrix(1 0 0 1 1357.09 367.015)"/><path d="M170.674 337.226L171.335 325.245L160.628 330.664L170.674 337.226Z" transform="matrix(1 0 0 1 1357.09 367.015)" fill="#000000" fill-opacity="1.000000" stroke="none"/><path d="M0 0L167.965 331.873" fill="none" stroke="#000000" stroke-opacity="1.000000" stroke-width="2" stroke-linejoin="round" stroke-dasharray="0 0" transform="matrix(1 0 0 1 1357.09 367.015)"/><path d="M170.674 491.786L172.935 480.001L161.598 483.936L170.674 491.786Z" transform="matrix(1 0 0 1 1357.09 566.478)" fill="#000000" fill-opacity="1.000000" stroke="none"/><path d="M0 0L168.707 486.118" fill="none" stroke="#000000" stroke-opacity="1.000000" stroke-width="2" stroke-linejoin="round" stroke-dasharray="0 0" transform="matrix(1 0 0 1 1357.09 566.478)"/><path d="M167.742 118.158L162.702 107.269L155.791 117.079L167.742 118.158Z" transform="matrix(1 0 0 1 1360.02 940.106)" fill="#000000" fill-opacity="1.000000" stroke="none"/><path d="M0 0L162.837 114.703" fill="none" stroke="#000000" stroke-opacity="1.000000" stroke-width="2" stroke-linejoin="round" stroke-dasharray="0 0" transform="matrix(1 0 0 1 1360.02 940.106)"/><path d="M170.674 691.249L174.008 679.722L162.358 682.598L170.674 691.249Z" transform="matrix(1 0 0 1 1357.09 367.015)" fill="#000000" fill-opacity="1.000000" stroke="none"/><path d="M0 0L169.236 685.424" fill="none" stroke="#000000" stroke-opacity="1.000000" stroke-width="2" stroke-linejoin="round" stroke-dasharray="0 0" transform="matrix(1 0 0 1 1357.09 367.015)"/><path d="M167.742 111.879L162.426 101.121L155.768 111.104L167.742 111.879Z" transform="matrix(1 0 0 1 1360.02 167.554)" fill="#000000" fill-opacity="1.000000" stroke="none"/><path d="M0 0L162.751 108.549" fill="none" stroke="#000000" stroke-opacity="1.000000" stroke-width="2" stroke-linejoin="round" stroke-dasharray="0 0" transform="matrix(1 0 0 1 1360.02 167.554)"/><path d="M170.674 -287.046L160.206 -281.18L170.52 -275.047L170.674 -287.046Z" transform="matrix(1 0 0 1 1357.09 566.478)" fill="#000000" fill-opacity="1.000000" stroke="none"/><path d="M0 0L167.608 -281.888" fill="none" stroke="#000000" stroke-opacity="1.000000" stroke-width="2" stroke-linejoin="round" stroke-dasharray="0 0" transform="matrix(1 0 0 1 1357.09 566.478)"/><path d="M167.742 -660.673L159.37 -652.077L171.001 -649.124L167.742 -660.673Z" transform="matrix(1 0 0 1 1360.02 940.106)" fill="#000000" fill-opacity="1.000000" stroke="none"/><path d="M0 0L166.266 -654.858" fill="none" stroke="#000000" stroke-opacity="1.000000" stroke-width="2" stroke-linejoin="round" stroke-dasharray="0 0" transform="matrix(1 0 0 1 1360.02 940.106)"/><path d="M170.674 -81.3042L158.712 -82.2517L163.873 -71.4182L170.674 -81.3042Z" transform="matrix(1 0 0 1 1357.09 566.478)" fill="#000000" fill-opacity="1.000000" stroke="none"/><path d="M0 0L165.257 -78.7238" fill="none" stroke="#000000" stroke-opacity="1.000000" stroke-width="2" stroke-linejoin="round" stroke-dasharray="0 0" transform="matrix(1 0 0 1 1357.09 566.478)"/><path d="M170.674 137.763L166.356 126.567L158.819 135.905L170.674 137.763Z" transform="matrix(1 0 0 1 1357.09 566.478)" fill="#000000" fill-opacity="1.000000" stroke="none"/><path d="M0 0L166.005 133.995" fill="none" stroke="#000000" stroke-opacity="1.000000" stroke-width="2" stroke-linejoin="round" stroke-dasharray="0 0" transform="matrix(1 0 0 1 1357.09 566.478)"/><path d="M167.742 317.62L168.195 305.629L157.584 311.233L167.742 317.62Z" transform="matrix(1 0 0 1 1360.02 167.554)" fill="#000000" fill-opacity="1.000000" stroke="none"/><path d="M0 0L164.94 312.314" fill="none" stroke="#000000" stroke-opacity="1.000000" stroke-width="2" stroke-linejoin="round" stroke-dasharray="0 0" transform="matrix(1 0 0 1 1360.02 167.554)"/><path d="M167.742 536.687L170.369 524.979L158.915 528.559L167.742 536.687Z" transform="matrix(1 0 0 1 1360.02 167.554)" fill="#000000" fill-opacity="1.000000" stroke="none"/><path d="M0 0L165.952 530.961" fill="none" stroke="#000000" stroke-opacity="1.000000" stroke-width="2" stroke-linejoin="round" stroke-dasharray="0 0" transform="matrix(1 0 0 1 1360.02 167.554)"/><path d="M167.742 890.71L171.715 879.387L159.923 881.608L167.742 890.71Z" transform="matrix(1 0 0 1 1360.02 167.554)" fill="#000000" fill-opacity="1.000000" stroke="none"/><path d="M0 0L166.632 884.814" fill="none" stroke="#000000" stroke-opacity="1.000000" stroke-width="2" stroke-linejoin="round" stroke-dasharray="0 0" transform="matrix(1 0 0 1 1360.02 167.554)"/><path d="M167.742 -235.864L156.83 -230.873L166.609 -223.918L167.742 -235.864Z" transform="matrix(1 0 0 1 1360.02 940.106)" fill="#000000" fill-opacity="1.000000" stroke="none"/><path d="M0 0L164.265 -230.975" fill="none" stroke="#000000" stroke-opacity="1.000000" stroke-width="2" stroke-linejoin="round" stroke-dasharray="0 0" transform="matrix(1 0 0 1 1360.02 940.106)"/><path d="M167.742 -454.932L158.518 -447.257L169.777 -443.106L167.742 -454.932Z" transform="matrix(1 0 0 1 1360.02 940.106)" fill="#000000" fill-opacity="1.000000" stroke="none"/><path d="M0 0L165.667 -449.302" fill="none" stroke="#000000" stroke-opacity="1.000000" stroke-width="2" stroke-linejoin="round" stroke-dasharray="0 0" transform="matrix(1 0 0 1 1360.02 940.106)"/><path d="M36.0938 21.2109L11.9531 21.2109L11.9531 17.9531L36.0938 17.9531L36.0938 21.2109ZM36.0938 27.0234L11.9531 27.0234L11.9531 23.6133L36.0938 23.6133L36.0938 27.0234ZM39.5977 15.4102L8.54297 15.4102L8.54297 29.5664L39.5977 29.5664L39.5977 15.4102ZM10.3711 47.0859L19.0547 47.0859L19.0547 50.0625C16.0312 50.4492 13.1016 50.7891 10.3711 51.0703L10.3711 47.0859ZM19.0547 35.1797L19.0547 38.4023L10.3711 38.4023L10.3711 35.1797L19.0547 35.1797ZM10.3711 41.0859L19.0547 41.0859L19.0547 44.4492L10.3711 44.4492L10.3711 41.0859ZM25.0547 52.2773L25.0547 49.3945L22.4648 49.6758L22.4648 35.1797L45.3633 35.1797L45.3633 32.2031L2.54297 32.2031L2.54297 35.1797L7.10156 35.1797L7.10156 51.3633C5.42578 51.5508 3.79688 51.6914 2.40234 51.8438L2.78906 55.0078C7.24219 54.4805 13.1016 53.7656 19.0547 53.0391L19.0547 57.6914L22.4648 57.6914L22.4648 52.6055L25.0547 52.2773ZM39.8906 41.0859C38.5898 43.9219 36.7148 46.3711 34.5586 48.4805C32.3555 46.3711 30.6211 43.875 29.3789 41.0859L39.8906 41.0859ZM42 38.0625L41.332 38.1562L24.3398 38.1562L24.3398 41.0859L27.2109 41.0859L26.2617 41.3789C27.6914 44.8359 29.6602 47.9531 32.1562 50.4961C29.5195 52.4648 26.543 53.9531 23.5664 54.9141C24.1875 55.5352 25.0547 56.7305 25.3945 57.5508C28.5586 56.4023 31.6758 54.7734 34.4648 52.6055C37.1953 54.8203 40.3711 56.4492 43.9688 57.5508C44.4492 56.6367 45.3633 55.3945 46.0781 54.7148C42.6211 53.8125 39.5508 52.3711 36.9609 50.4961C40.0781 47.4258 42.5273 43.6289 44.0156 38.9297L42 38.0625ZM76.4649 30.293L63.797 30.293L63.797 33.6914L92.9298 33.6914L92.9298 30.293L80.0157 30.293L80.0157 23.4727L90.7735 23.4727L90.7735 20.1094L80.0157 20.1094L80.0157 13.8281L76.4649 13.8281L76.4649 20.1094L66.1407 20.1094L66.1407 23.4727L76.4649 23.4727L76.4649 30.293ZM60.961 14.0156C58.5118 21.2695 54.4806 28.418 50.1095 33.0703C50.6837 33.8906 51.7384 35.707 52.1251 36.5742C53.4727 34.9922 54.8673 33.2109 56.1563 31.3008L56.1563 57.6914L59.6602 57.6914L59.6602 25.4883C61.4415 22.0781 63.0235 18.5742 64.3243 14.9766L60.961 14.0156ZM80.0157 52.4648L80.0157 44.4492L91.5821 44.4492L91.5821 41.0859L80.0157 41.0859L80.0157 35.5664L76.4649 35.5664L76.4649 41.0859L65.1329 41.0859L65.1329 44.4492L76.4649 44.4492L76.4649 52.4648L62.2618 52.4648L62.2618 55.9219L93.8907 55.9219L93.8907 52.4648L80.0157 52.4648ZM108.914 14.0156C106.219 21.3164 101.766 28.5117 97.0549 33.0703C97.7228 33.8906 98.7307 35.707 99.0705 36.5742C100.699 34.8516 102.34 32.9297 103.828 30.7734L103.828 57.5977L107.227 57.5977L107.227 25.582C109.149 22.2188 110.883 18.6211 112.278 15.0703L108.914 14.0156ZM135.41 52.2188L117.891 52.2188L117.891 40.8984L135.41 40.8984L135.41 52.2188ZM141.938 27.7969L141.938 24.3398L128.309 24.3398L128.309 13.8281L124.699 13.8281L124.699 24.3398L111.645 24.3398L111.645 27.7969L124.699 27.7969L124.699 37.5352L114.387 37.5352L114.387 57.6914L117.891 57.6914L117.891 55.6289L135.41 55.6289L135.41 57.5039L139.008 57.5039L139.008 37.5352L128.309 37.5352L128.309 27.7969L141.938 27.7969ZM160.653 21.8438C159.024 19.875 155.66 16.8047 153.024 14.6836L150.715 16.9922C153.364 19.1953 156.668 22.418 158.262 24.4805L160.653 21.8438ZM157.535 49.1953L157.535 28.8516L146.403 28.8516L146.403 32.3555L153.938 32.3555L153.938 49.5352C153.938 51.5508 152.543 52.8984 151.629 53.5195C152.262 54.293 153.164 55.8281 153.504 56.7891C154.278 55.7812 155.614 54.7148 164.543 48.3867C164.262 47.6602 163.629 46.1719 163.395 45.2695L157.535 49.1953ZM189.891 29.707L177.739 29.707L177.739 14.0156L174.047 14.0156L174.047 29.707L161.86 29.707L161.86 33.3164L174.047 33.3164L174.047 57.6914L177.739 57.6914L177.739 33.3164L189.891 33.3164L189.891 29.707ZM204.774 13.9219C202.278 21.1641 198.141 28.2773 193.723 32.9297C194.309 33.7969 195.364 35.6133 195.692 36.4336C197.086 34.8516 198.481 33.1172 199.782 31.1953L199.782 57.6445L203.086 57.6445L203.086 25.875C205.008 22.418 206.684 18.668 207.985 14.9297L204.774 13.9219ZM213.598 49.2422L230.262 49.2422L230.262 53.1797L213.598 53.1797L213.598 49.2422ZM230.262 29.1328L230.262 33.1641L213.598 33.1641L213.598 29.1328L230.262 29.1328ZM230.262 39.8906L213.598 39.8906L213.598 35.8125L230.262 35.8125L230.262 39.8906ZM213.598 42.4805L230.262 42.4805L230.262 46.6055L213.598 46.6055L213.598 42.4805ZM233.567 53.1797L233.567 26.3555L221.86 26.3555C222.235 25.0547 222.575 23.4727 222.961 21.8906L236.403 21.8906L236.403 18.7734L223.582 18.7734C223.922 17.1797 224.203 15.5508 224.496 14.1094L220.7 13.875C220.559 15.3164 220.325 17.0391 220.078 18.7734L207.844 18.7734L207.844 21.8906L219.551 21.8906C219.211 23.4727 218.93 25.0547 218.637 26.3555L210.387 26.3555L210.387 53.1797L205.828 53.1797L205.828 56.2617L237.844 56.2617L237.844 53.1797L233.567 53.1797Z" fill="#19191A" fill-opacity="1.000000" transform="matrix(1 0 0 1 1851.61 255.688)"/></svg>